<?xml version="1.0" encoding="utf-8" ?>
<svg baseProfile="full" height="300mm" version="1.1" viewBox="0,0,200,300" width="200mm" xmlns="http://www.w3.org/2000/svg" xmlns:ev="http://www.w3.org/2001/xml-events" xmlns:xlink="http://www.w3.org/1999/xlink"><defs /><rect fill="#222222" height="300" width="200" x="0" y="0" /><text fill="#FFFFFF" style="font-size:12px; font-family:Arial; font-weight:bold;" x="10" y="20">Over 5km Runs</text><text fill="#FFFFFF" style="font-size:4px; font-family:Arial" x="10" y="280">ATHLETE</text><text fill="#FFFFFF" style="font-size:9px; font-family:Arial" x="10" y="290">jinan36</text><text fill="#FFFFFF" style="font-size:4px; font-family:Arial" x="120" y="280">STATISTICS</text><text fill="#FFFFFF" style="font-size:3px; font-family:Arial" x="120" y="285">Number: 7</text><text fill="#FFFFFF" style="font-size:3px; font-family:Arial" x="120" y="290">Weekly: 1.8</text><text fill="#FFFFFF" style="font-size:3px; font-family:Arial" x="141" y="285">Total: 40.0 km</text><text fill="#FFFFFF" style="font-size:3px; font-family:Arial" x="141" y="290">Avg: 5.7 km</text><text fill="#FFFFFF" style="font-size:3px; font-family:Arial" x="167" y="285">Min: 5.1 km</text><text fill="#FFFFFF" style="font-size:3px; font-family:Arial" x="167" y="290">Max: 6.5 km</text><polyline fill="none" points="67.0,69.74501802067971 66.78084415581543,69.67184172049747 66.56168831174728,69.72062592272414 66.36444805189967,69.72062592272414 65.90422077919357,69.54988117844914 64.61120129865594,68.72054811380804 63.997564935008995,68.50101837058901 63.03327922092285,67.86682038818253 62.7702922077151,67.57411315274658 62.63879870134406,67.52532858433551 62.59496753255371,67.45215171622112 62.44155844161287,67.40336712705903 62.46347402606625,67.40336712705903 62.02516233769711,67.86682038818253 61.60876623378135,68.45223396032816 60.97321428579744,69.01325417595217 60.33766233769711,69.45231270740624 59.811688311747275,69.74501802067971 59.61444805189967,69.79380221039173 58.935064935008995,69.91576264836476 57.48863636364695,69.9889388861775 56.65584415581543,69.94015472970204 56.21753246767912,69.86697847943287 55.82305194810033,69.9889388861775 55.25324675324373,70.08650717418641 54.6176948051434,70.13529130566167 53.14935064932797,70.01333096134476 52.57954545458779,70.06211510530557 51.790584415663034,70.03772303432925 50.95779220783152,69.96454680900206 49.99350649351254,70.06211510530557 48.30600649351254,70.01333096134476 47.80194805201609,70.06211510530557 47.47321428579744,70.03772303432925 47.29788961040322,69.9889388861775 46.96915584418457,70.11089924091357 46.728084415663034,70.13529130566167 46.311688311747275,70.11089924091357 45.76379870134406,70.01333096134476 45.87337662349455,69.9889388861775 45.08441558445338,70.13529130566167 45.50081168836914,69.79380221039173 45.58847402606625,69.84258639186737 45.21590909094084,69.86697847943287 44.4926948051434,70.03772303432925 42.432629870134406,70.1596833683434 40.78896103904117,70.1596833683434 39.4521103897132,70.08650717418641 39.1672077922849,70.1596833683434 38.50974025973119,70.11089924091357 37.282467532437295,70.20846748733311 36.625,70.11089924091357 35.46347402606625,70.06211510530557 34.630681818234734,70.13529130566167 33.71022727282252,70.08650717418641 32.680194805259816,70.2328595436993 32.15422077930998,70.18407542884233 31.255681818234734,70.2328595436993 31.058441558503546,70.18407542884233 29.831168831209652,70.2328595436993 28.31899350648746,70.57434811472194 27.968344155931845,70.59874013985973 26.85064935067203,70.91583627799992 26.69724025973119,70.94022827403387 26.171266233781353,70.81826827299665 26.061688311747275,70.74509224732174 25.886363636353053,70.81826827299665 25.49188311700709,70.81826827299665 25.31655844161287,70.69630821989267 25.097402597544715,70.30603570037056 25.00974025973119,69.96454680900206 24.790584415663034,69.54988117844914 24.418019480537623,68.57419497042429 24.374188311747275,68.42784175209817 24.30844155838713,67.76925134297926 24.220779220806435,67.59850543382345 24.045454545528628,66.93991311494028 24.001623376621865,66.20814209291711 24.133116883109324,65.6715088201745 24.15503246767912,65.28122944384813 24.264610389713198,64.84216450894019 24.28652597416658,64.72020190733019 24.198863636353053,64.47627654814278 24.198863636353053,64.35431379062356 24.242694805259816,64.08599554075045 24.396103896200657,63.76889183005551 24.549512987025082,63.32982457324397 24.571428571478464,63.11029069204233 24.768668831209652,62.50047347115469 24.790584415663034,62.18336800238467 24.96590909094084,61.76869108961546 25.820616883109324,60.109977425367106 26.105519480537623,59.69529750593938 26.30275974026881,59.25622399474378 26.65340909094084,58.7927567793231 27.31087662349455,57.743854518048465 27.420454545528628,57.52431634848472 27.66152597416658,56.670555198186776 27.836850649444386,56.42662297282368 28.012175324722193,56.255870291235624 28.165584415663034,55.76800492478651 28.428571428521536,55.25574539418449 28.428571428521536,54.57273125919164 28.53814935067203,54.011682713608025 28.450487012974918,53.59699395057396 28.581980519578792,53.32866560705588 28.450487012974918,52.865188784111524 28.62581168836914,52.206562532897806 28.62581168836914,51.76747752260417 28.69155844161287,51.27960449809325 28.71347402606625,50.3770372083236 28.362824675394222,49.49886089444044 28.231331168906763,49.425679413136095 28.056006493628956,49.37689174860134 27.245129870134406,49.425679413136095 26.982142857275903,49.401285581931006 25.185064935008995,49.62082998821279 24.045454545528628,49.64522380073322 23.71672077930998,49.59643617356778 23.125,49.69401141945855 22.59902597416658,49.71840522577986 22.314123376621865,49.76719283207785 20.62662337673828,49.88916181138484 20.42938311700709,49.84037422586698 20.40746753255371,49.69401141945855 20.42938311700709,49.79158663205453 20.47321428579744,49.81598043005215 20.363636363646947,49.79158663205453 19.68425324675627,49.96234317403287 19.070616883109324,50.084312070015585 18.719967532437295,50.23067467662622 18.544642857159488,50.15749338272144 16.90097402606625,50.25506843716721 15.629870129865594,50.35264345823089 15.257305194856599,50.3282497060718 14.643668831209652,50.3770372083236 14.183441558619961,50.35264345823089 13.569805194856599,50.523399665020406 13.087662337697111,50.57218713397742 13.021915584453382,50.669762046891265 13.0,50.84051806433126 13.021915584453382,50.84051806433126 13.219155844300985,50.84051806433126 13.525974026066251,50.742943209712394 13.87662337673828,50.742943209712394 13.964285714318976,50.767336926510325 13.964285714318976,50.84051806433126 14.03003246767912,50.88930547918426 14.117694805259816,50.8649117728346 14.117694805259816,50.91369918349665 14.205357142956927,50.96248658580589 14.884740259731188,51.011273979820544 15.34496753255371,50.79173064127099 15.739448052016087,50.718549490877194 15.914772727410309,50.742943209712394 16.39691558445338,50.669762046891265 16.484577922150493,50.69415576997562 16.703733766335063,50.64536832176964 17.2297077922849,50.742943209712394 17.448863636353053,50.69415576997562 17.711850649444386,50.57218713397742 18.21590909094084,50.62097459466895 18.78571428579744,50.54779340059031 19.662337662419304,50.59658086538548 20.62662337673828,50.3770372083236 20.758116883109324,50.27946219552541 21.021103896200657,50.3282497060718 21.656655844300985,50.23067467662622 22.2922077922849,50.3282497060718 22.46753246767912,50.30385595187545 22.796266233897768,50.20628091407707 23.36607142863795,50.27946219552541 23.78246753255371,50.23067467662622 24.111201298772357,50.13309961394407 24.61525974026881,50.01113073862507 25.031655844300985,50.084312070015585 25.579545454587787,50.10870584301301 26.28084415581543,49.91355560097145 27.420454545528628,49.79158663205453 27.99025974026881,49.76719283207785 28.38474025973119,49.81598043005215 28.69155844161287,49.91355560097145 28.99837662349455,49.91355560097145 29.327110389713198,49.88916181138484 29.67775974026881,49.76719283207785 30.29139610391576,49.71840522577986 30.861201298772357,49.62082998821279 31.277597402688116,49.71840522577986 32.00081168836914,49.59643617356778 32.48295454564504,49.47446706946357 33.096590909175575,49.54764853819506 33.29383116890676,49.62082998821279 33.77597402606625,49.57204235691461 34.499188311747275,49.54764853819506 34.937500000116415,49.59643617356778 35.04707792215049,49.59643617356778 35.41964285704307,49.352497913176194 35.41964285704307,49.279316394531634 35.57305194810033,49.181741007079836 35.68262987025082,49.20613485702779 35.96753246767912,49.401285581931006 36.14285714295693,49.425679413136095 36.318181818234734,49.401285581931006 36.405844155931845,49.352497913176194 36.53733766230289,49.1329533008975 36.69074675324373,49.05977172599523 37.282467532437295,49.523254717321834 37.39204545458779,49.57204235691461 37.83035714295693,49.59643617356778 37.939935064991005,49.352497913176194 38.093344155931845,49.279316394531634 38.33441558445338,49.328104075742885 38.77272727282252,49.62082998821279 39.14529220783152,49.69401141945855 39.73701298702508,49.59643617356778 40.04383116890676,49.49886089444044 40.41639610391576,49.49886089444044 40.70129870134406,49.54764853819506 41.402597402688116,49.45007324236212 41.753246753360145,49.45007324236212 42.060064935008995,49.352497913176194 42.432629870134406,49.401285581931006 43.243506493628956,49.303710236185 43.87905844161287,49.328104075742885 44.843344155931845,49.47446706946357 45.807629870134406,49.54764853819506 46.2021103897132,49.54764853819506 46.508928571478464,49.47446706946357 46.662337662419304,49.54764853819506 47.10064935067203,49.45007324236212 47.560876623378135,49.425679413136095 47.845779220806435,49.59643617356778 47.911525974050164,49.69401141945855 48.02110389620066,49.69401141945855 48.30600649351254,49.62082998821279 48.415584415663034,49.523254717321834 48.48133116890676,49.45007324236212 48.59090909094084,49.401285581931006 48.70048701297492,49.45007324236212 48.96347402606625,49.81598043005215 49.160714285681024,49.84037422586698 49.2702922077151,49.84037422586698 49.883928571478464,49.64522380073322 50.54139610391576,49.69401141945855 50.65097402606625,49.937949388549896 50.71672077930998,50.3282497060718 50.804383116890676,50.499005927413236 50.89204545458779,50.88930547918426 50.82629870134406,51.596722058719024 50.73863636364695,51.74308389113867 50.71672077930998,51.938232884480385 50.782467532437295,52.06020093776169 50.95779220783152,52.25534971462912 50.870129870134406,52.62125331236166 50.91396103904117,52.889582319854526 50.76055194810033,53.231091601453954 50.6948051948566,53.47502655297285 50.804383116890676,53.86532204240211 50.6948051948566,54.011682713608025 50.60714285704307,54.42637087521143 50.782467532437295,55.37771203229204 50.6948051948566,55.792398212855915 50.73863636364695,56.548589111480396 50.65097402606625,56.841307632188546 50.67288961040322,57.37795747522614 50.65097402606625,57.76824763751938 50.71672077930998,58.207323433452984 50.84821428579744,58.74397071285057 50.804383116890676,58.841542837326415 50.65097402606625,58.98790096153971 50.62905844161287,59.061079995532054 50.71672077930998,59.47576083464082 50.89204545458779,59.6709045508469 50.97970779216848,59.84165519324597 50.89204545458779,60.085584505519364" stroke="#4dd2ff" stroke-linecap="round" stroke-linejoin="round" stroke-width="0.5"><title>2022-11-19 6.1km</title></polyline><polyline fill="none" points="186.7121535182232,62.354872553551104 187.0,62.16264902125113 186.68336886994075,62.06653721816838 186.5682302772766,62.130611756263534 186.39552238816395,62.25876079977024 186.39552238816395,62.418947042518994 186.30916844354942,62.70728210735251 184.86993603419978,63.66839739208808 184.20788912579883,64.27710246719653 183.80490405124146,64.72562136518536 182.19296375266276,65.94302710305783 181.67484008532483,66.45561781243305 180.86886993597727,67.0002446747676 180.12046908319462,67.41672350736917 178.59488272923045,67.89727543282788 178.39339019195177,68.02542250909028 178.39339019195177,68.15356954175513 178.30703624722082,68.21764304157114 176.55117270792834,68.7622673495789 176.09061833680607,68.66615723492578 175.1982942429604,68.79430404904997 174.2771855010651,68.79430404904997 173.32729211088736,68.92245081928559 171.71535181242507,68.85837743958109 170.59275053301826,68.95448750510695 168.9232409382239,68.85837743958109 168.0309168442618,68.95448750510695 167.5991471215384,69.08263422071468 166.7643923240248,69.05059754592367 165.9008528784616,69.11467089276994 164.69189765455667,69.05059754592367 164.08742004272062,69.08263422071468 163.6556503197644,68.98652418807615 163.33901918970514,68.98652418807615 162.30277185491286,68.89041413078667 161.81343283585738,68.92245081928559 161.00746268650983,68.89041413078667 160.4893390191719,68.7622673495789 160.02878464804962,68.73023064737208 159.74093816638924,68.79430404904997 159.05010660970584,68.79430404904997 158.3880597014213,68.92245081928559 158.07142857136205,69.08263422071468 157.43816631135996,69.17874422884779 155.76865671633277,69.11467089276994 155.02025586355012,69.14670756217674 153.9552238804754,69.30689086797065 152.6311300637899,69.30689086797065 150.64498933893628,69.43503746349597 150.0980810233159,69.27485421227175 149.37846481869929,69.2428175539244 147.19083155645058,69.3389275209629 146.8454157782253,69.27485421227175 146.2985074626049,69.27485421227175 145.46375266520772,69.3389275209629 145.0319829423679,69.17874422884779 144.60021321941167,69.17874422884779 144.45628997858148,69.21078089269577 143.9669509594096,69.46707410557428 143.62153518106788,69.43503746349597 143.132196161896,69.56318401524913 142.4989339018939,69.53114738140721 141.69296375254635,69.69133052334655 141.54904051159974,69.69133052334655 141.40511727065314,69.75540376087883 141.17484008520842,69.69133052334655 140.7430703623686,69.78744037565775 139.85074626852293,69.72336714348057 138.9008528784616,69.78744037565775 137.7206823026063,69.72336714348057 136.54051172698382,69.56318401524913 136.4541577823693,69.43503746349597 136.3965884859208,69.21078089269577 136.33901918970514,68.34579000863596 136.07995735597797,67.22450256501907 136.108742004144,66.7439497790765 135.79211087420117,65.75080540668569 135.56183368864004,64.69358431870933 135.0437100213021,62.99561695093871 134.9861407247372,62.61117044376442 134.75586353929248,62.130611756263534 134.75586353929248,62.002462669159286 134.46801705751568,61.74616436375072 134.32409381645266,61.32967924454715 134.09381663089152,60.88115629195818 134.0650319828419,60.59281982539687 133.80597014911473,59.95207132957876 133.63326226000208,59.24724672190496 133.05756929621566,57.64536769507686 133.05756929621566,57.357028744823765 133.0287846479332,57.132764963869704 133.05756929621566,56.36385955524747 133.0,55.883292875718325 133.17270788899623,55.242536346573615 133.20149253716227,54.761968232371146 133.3742004262749,53.54452625813428 133.3742004262749,53.25618415995268 133.431769722607,53.12803204529337 133.60447761171963,52.32708033797098 133.7196162046166,52.102813553850865 134.23773987207096,51.78243220146396 134.89978678023908,51.590203258849215 136.62686567148194,51.333897849021014 137.20255863526836,51.10963047182304 138.72814498923253,51.26982146911905 139.21748400840443,51.14166867680615 139.24626865657046,51.07759226419148 139.30383795301896,51.14166867680615 139.6204690830782,51.10963047182304 140.4552238805918,50.91740118493908 140.97334754792973,51.01351584069198 141.11727078875992,51.01351584069198 141.11727078875992,50.98147762482404 141.20362473349087,50.949439406220336 141.46268656710163,50.98147762482404 141.6641791043803,50.91740118493908 142.52771855005994,51.01351584069198 142.6428571427241,50.98147762482404 143.7654584220145,51.04555405373685 144.77292110864073,50.98147762482404 145.55010660982225,50.82128650450613 146.09701492532622,50.85332473399467 146.35607675893698,50.75721003723447 146.6439232408302,50.69313355907798 146.9317697227234,50.75721003723447 147.2196162046166,50.88536296080565 147.96801705751568,50.75721003723447 147.88166311290115,50.82128650450613 148.5437100211857,50.85332473399467 149.723880597041,50.62905706994934 150.06929637514986,50.46886579936836 151.0767590616597,50.40478927202639 151.59488272911403,50.40478927202639 152.11300639645196,50.276636184571544 152.65991471207235,50.40478927202639 153.20682302769274,50.43682753710891 153.8113006396452,50.372751004295424 154.3006396588171,50.50090405900846 155.8550106609473,50.532942315825494 156.1428571428405,50.69313355907798 156.66098081017844,50.69313355907798 157.03518123656977,50.59701882133959 158.21535181230865,50.46886579936836 158.50319829420187,50.50090405900846 158.84861407242715,50.62905706994934 160.17270788911264,50.56498056999408 160.51812366733793,50.66109531591064 160.66204690828454,50.59701882133959 160.89232409384567,50.46886579936836 161.43923240934964,50.34071273377049 162.64818763313815,50.276636184571544 163.62686567148194,50.34071273377049 164.05863539443817,50.21255962434225 164.74946695088875,50.30867446050979 164.97974413644988,50.21255962434225 166.41897654579952,50.30867446050979 166.79317697230726,50.46886579936836 166.8795309169218,50.56498056999408 166.9658848614199,50.82128650450613 166.99466950946953,51.558165092166746 167.08102345408406,51.910584775177995 167.19616204698104,53.095994009810966 167.28251599147916,53.60860224987846 167.39765458425973,53.60860224987846 167.71428571431898,53.864906107541174 168.20362473349087,53.96102000915562 169.18230277183466,54.345475369511405 170.2473347549094,54.66585453579319 170.93816631124355,55.08234704344068 170.93816631124355,55.21049849144765 171.39872068236582,55.40272558131255 172.03198294248432,55.97940626076888 172.3773987207096,56.2357085008407 172.60767590627074,56.524048311897786 172.95309168449603,56.74831245621317 173.32729211088736,57.357028744823765 173.7878464817768,58.35019530844875 174.190831556567,60.656894614890916 174.16204690828454,60.785044161078986 173.81663113005925,61.041343122167746 173.41364605538547,61.041343122167746 172.20469083159696,61.23356722833705 170.73667377408128,61.201529884157935 170.07462686568033,61.265604569751304 169.81556503195316,61.201529884157935 168.95202558650635,61.29764190851711 167.8006396588171,61.169492537213955 167.5991471215384,61.10541783514782 167.48400852875784,60.94523103226675 167.31130063952878,60.49670762073947 167.31130063952878,60.048183673701715 167.10980810236651,59.18317169198417 166.93710021325387,58.157969726860756 166.99466950946953,57.51721707780962 167.08102345408406,57.260915712220594 167.10980810236651,56.556086054974 167.19616204698104,56.26774626853876 167.02345415775198,54.44158914798754 167.1673773986986,54.24936156626791 167.51279317692388,54.12120979040628 167.91577825159766,54.153247738518985 168.0309168442618,54.12120979040628 168.20362473349087,54.31343743781326 169.47014925372787,54.50566498673288 169.87313432828523,54.66585453579319 170.01705756923184,54.794006125826854 170.1321961620124,54.794006125826854 170.44882729207166,54.8901197896339 170.6215351811843,55.08234704344068 171.83049040508922,55.81921727201552 172.98187633266207,56.81238790156203 173.18336886994075,57.132764963869704 173.55756929633208,57.77351826863014 173.67270788911264,58.12593212039792 173.73027718544472,58.57445836265106 173.73027718544472,58.86279637843836 173.96055437100586,59.75984656770015 173.90298507455736,59.6637341499154 173.93176972283982,59.18317169198417 173.7878464817768,59.08705912655569 173.58635394461453,58.63853349638521 173.5,58.31815771840047 172.98187633266207,57.324991070025135 172.69402985076886,56.908501048892504 172.60767590627074,56.71627472960972 172.49253731337376,56.65219926790451" stroke="#4dd2ff" stroke-linecap="round" stroke-linejoin="round" stroke-width="0.5"><title>2022-11-15 5.1km</title></polyline><polyline fill="none" points="13.0,142.36673908232478 13.060572069487534,142.1981974245282 13.121144139091484,142.29932242783252 13.242288278182968,142.16448908433085 14.120583286625333,141.9622389828728 14.272013460402377,141.86111389327561 14.484015704016201,141.65886363646132 14.968592260265723,141.05211224535014 15.998317442485131,139.46781255473616 16.149747616262175,139.4003954056825 16.240605720784515,139.16443529372918 16.72518227691762,138.69251464714762 16.93718452041503,138.59138872104813 16.96747055533342,138.65880600805394 17.149186763796024,138.59138872104813 17.815479528857395,138.01834131745272 18.633202467812225,136.97337038378464 18.96634885040112,136.70370001689298 19.269209197955206,136.06323215804878 19.511497476138175,135.7935611701978 19.693213684717193,135.49018108888413 19.965787997702137,135.18680077468161 20.208076275885105,134.7822933268617 20.26864834560547,134.47891246923245 20.38979248458054,134.17553137883078 20.329220415093005,133.90585910287336 20.48065058887005,133.56876849915716 20.51093662378844,133.26538671011804 20.632080762647092,132.92829556009383 20.632080762647092,131.64734656814835 20.541222658474,131.5462188393285 20.632080762647092,131.34396330401069 20.722938867169432,130.70348675939022 20.571508693159558,130.23155600973405 20.662366797565483,130.02929980159388 20.238362310803495,128.88317933381768 20.117218171595596,128.27640832882025 19.965787997702137,128.0404415752564 19.238923163269646,127.13028277730336 18.936062815482728,126.79318639432313 18.69377453729976,126.6583477605891 17.99719573755283,125.647056541231 17.573191250790842,125.41108821763191 17.54290521587245,125.17511975311209 17.391475042095408,124.90544133551884 17.3006169378059,124.87173152031028 17.149186763796024,124.63576273378567 16.84632641612552,123.92785552880378 16.39203589456156,123.52333655650727 16.240605720784515,123.08510720269987 16.089175546891056,122.88284733699402 15.998317442485131,122.68058736776584 15.756029164418578,122.41090724780224 15.544026920804754,121.70299605713808 15.51374088623561,121.23105455885525 15.634885025210679,121.0287937441608 15.907459338195622,120.75911249694764 16.028603477287106,120.75911249694764 16.240605720784515,120.62427180423401 16.664610207430087,120.18603923538467 16.84632641612552,119.91635741302161 17.149186763796024,119.64667540660594 17.421761076780967,119.17473145236727 17.84576556365937,118.9724695852492 18.48177229380235,118.53423518445925 18.87549074587878,118.43310409982223 18.996634884970263,118.33197298937012 18.814918676391244,118.3656833623536 18.814918676391244,118.399393732514 18.84520471119322,118.33197298937012 19.087492989376187,118.29826261353446 19.360067302244715,118.06228990165982 19.54178351094015,117.28694999904837 19.693213684717193,117.05097668324015 20.08693213679362,116.74758221302181 20.329220415093005,116.41047697293106 20.632080762647092,116.17450313363224 20.904655075632036,115.53400200259057 21.177229388733394,115.33173827180872 21.237801458104514,115.09576378841302 21.237801458104514,114.85978916406748 21.32865956251044,114.82607849198394 21.782950084190816,114.08444297758979 22.176668536150828,112.9719870959525 22.388670779648237,110.88190999993822 22.60067302302923,110.07284492990584 22.75210319692269,109.93800059059868 22.93381940550171,109.46604504028801 23.024677509907633,108.5895546656393 22.994391475105658,108.21873122945544 23.2669657880906,107.44337201103917 23.53954010095913,106.36460882826941 23.751542344340123,105.85893757228041 24.024116657325067,105.38697714952286 23.993830622639507,105.08357372300816 24.0846887268126,105.01615070769913 24.478407179005444,104.27449677954428 24.90241166576743,103.29685992910527 25.35670218744781,102.92603152542142 25.598990465514362,102.79118474683492 25.780706674209796,102.72376134028309 26.053280987078324,102.75747304505785 27.143578239018098,102.993454897427 27.446438586572185,103.02716657909332 28.44587773422245,103.56655309506459 28.869882220984437,103.66768798479461 30.83847448125016,104.64532391764806 31.716769489692524,104.94872768074856 33.5036455411464,105.89264900950366 34.07908020191826,106.02749472955475 34.38194054970518,106.22976322329487 35.19966348866001,106.63429990006262 36.65339315775782,107.20739281646092 37.13796971400734,107.44337201103917 37.71340437454637,107.61192849231884 38.28883903543465,107.91532997740433 39.25799214793369,108.18501999080763 39.621424565440975,108.488421035785 39.8939988783095,108.85924421885284 40.10600112180691,109.06151126284385 40.68143578246236,109.53346729633631 41.196298373513855,109.83686730582849 41.49915872141719,110.14026708234451 41.98373527766671,110.47737767201033 42.135165451443754,110.67964388776454 42.740886146901175,111.2527309365978 43.31632080767304,111.69097341311863 43.588895120541565,111.72468435266637 43.8917554684449,111.92694992988254 44.255187885602936,111.99437176596257 44.376332024810836,112.12921540357638 44.618620302993804,112.50003516973811 44.86090858117677,112.6348786346498 44.92148065066431,112.80343290133169 45.254627033136785,113.14054121880326 45.64834548532963,113.24167365793255 45.830061693675816,113.47764924864168 46.40549635456409,114.05073223935324 46.4963544588536,114.59010370649048 46.678070667549036,114.75865713899839 47.31407739769202,114.92721049967804 48.31351654534228,115.39915952691808 48.64666292781476,115.7362656298792 49.55524397082627,116.343055890291 50.19125070120208,116.98355570997228 50.82725743134506,117.3206604612351 51.58440830069594,117.860027465038 51.7358384745894,118.02857950271573 52.09927089174744,118.29826261353446 52.7958496917272,118.80391795010655 53.12899607408326,118.93875926389592 53.61357263056561,119.54554460666259 54.31015143019613,120.15232901767013 55.67302299500443,120.99508359836182 56.21817162097432,121.12992416450288 56.460459899157286,121.50073548409273 56.88446438580286,121.77041622516117 57.00560852501076,121.93896659489837 57.7021873248741,122.44461727282032 58.03533370734658,122.61316735501168 58.51991026371252,123.15252713495283 58.70162647240795,123.52333655650727 59.18620302877389,124.23124448626186 59.67077958502341,124.66947256910498 59.852495793718845,124.93915114772972 59.973639932693914,124.97286095714662 60.427930454257876,125.61334678926505 60.97307908034418,126.05157333947136 61.21536735841073,126.15270247435546 61.487941671395674,126.6246380948869 61.85137408878654,126.99544425867498 61.82108805386815,127.02915389262489 61.94223219307605,127.29883086096379 62.335950645036064,127.90560336707858 62.79024116671644,128.54608444601763 63.48681996646337,129.15285503707128 64.18339876609389,130.02929980159388 64.51654514868278,130.09671854920452 64.8194054964697,129.96188104263274 65.21312394854613,130.13042791862972 65.45541222661268,130.29897472271114 65.5462703310186,130.56864945989219 65.66741447011009,131.14170766519965 65.93998878309503,131.64734656814835 66.15199102647603,131.9170203851827 66.4851374089485,132.1529848240898 66.66685361764394,132.45636746718083 66.84856982622296,132.42265829606913 67.0,132.1866940181353 67.0,132.01814801906585 66.51542344375048,131.78218349965755 65.75827257451601,131.27654476923635 65.48569826153107,131.17541694556712 65.21312394854613,130.8383240129915 64.91026360075921,130.60235878903768 64.63768928777426,130.16413728523185 64.30454290518537,129.89446227208828 63.880538418423384,129.35511169367237 63.54739203595091,129.08543612848734 63.39596186217386,128.88317933381768 63.30510375776794,128.88317933381768 63.30510375776794,128.95059827688965 63.15367358387448,128.78205089768744 62.69938306231052,128.17527973733377 62.36623667983804,127.8044746806845 61.8816601234721,127.09657315190998 61.85137408878654,126.92802498204401 61.609085810603574,126.5235090808419 61.336511497502215,126.18641218019184 60.39764441968873,125.27624911232851 60.24621424567886,125.0402805673657 59.79192372423131,124.56834305473603 59.48906337644439,124.39979380636942 59.36791923746932,124.19753461354412 59.03477285488043,123.99527531725471 58.338194055017084,123.2873669648252 57.944475602940656,122.98397728285636 57.5810431856662,122.54574733081972 57.42961301188916,122.2760671187425 56.00616937747691,121.23105455885525 55.824453169014305,120.89395314350259 55.49130678642541,120.42201067903079 54.55243970849551,119.71409592538839 53.88614694343414,118.9724695852492 52.73527762212325,118.399393732514 51.91755468316842,117.6914753553865 51.705552439787425,117.59034405514831 51.28154795290902,117.28694999904837 50.46382501418702,116.81500322645297 49.918676388217136,116.37676643306622 49.79753224912565,116.24192424493958 49.07066741457675,115.50029138792888 47.98037016275339,114.82607849198394 47.22321929340251,114.21928590192692 46.678070667549036,113.91588925739052 46.52664049353916,113.78104622961837 46.678070667549036,113.88217850477668 46.64778463274706,114.0170214981481 46.52664049353916,113.9496000072395 45.345485137426294,112.80343290133169 43.86146943352651,111.52241867201519 43.679753224831074,111.32015288778348 43.2557487381855,111.01675401712419 42.771172181819566,110.61222182732308 42.256309590651654,110.34253347065533 41.83230510388967,110.17397815431468 41.55973079090472,110.00542276605847 40.98429613024928,109.56717841999489 40.651149747660384,109.1963559013675 40.287717330269516,108.96037775377044 40.07571508700494,108.7581106579164 39.31856421765406,108.21873122945544 39.28827818285208,108.15130874913302 38.712843522196636,108.01646375402925 38.50084127881564,107.78048490177025 37.38025799207389,107.17368149149115 37.047111609601416,107.10625883290777 36.53224901854992,106.87027943693101 36.0476724623004,106.76914536699769 34.29108244529925,105.89264900950366 33.957936062826775,105.7915146893356 32.958496915292926,105.38697714952286 32.171060011256486,104.84759311901871 31.716769489692524,104.6116123739921 30.62647223798558,104.27449677954428 29.566461020847782,103.66768798479461 28.991026359959505,103.53284145944053 28.688166012405418,103.33057158495649 27.68872686487157,102.92603152542142 27.50701065629255,102.79118474683492 26.5075715087587,102.35293239867315 25.11441390903201,101.81354422590812 24.811553561477922,101.61127347132424 23.53954010095913,101.13930797437206 23.206393718486652,100.93703687455854 22.54010095342528,100.76847754549817 21.570947840693407,100.1953752891277 21.268087493022904,99.95939176544198 21.056085249525495,99.89196787565015 19.996074032620527,99.25144034859841 19.148065058863722,98.9817442370695 18.90577678079717,98.81318407383515 17.664049354963936,98.20636689075036 16.876612450927496,97.63326091767522 16.72518227691762,97.63326091767522 16.664610207430087,97.73439732636325 16.694896242348477,97.83553370894515 16.816040381323546,97.97038217907539 16.96747055533342,98.00409428932471 17.330902972607873,98.27379106823355 18.754346606787294,98.9817442370695 19.54178351094015,99.55484825395979 20.359506449778564,99.92567982201581 20.813796971342526,100.36393486268935 21.025799214839935,100.46507057215786 21.32865956251044,100.43135867186356 21.540661806007847,100.53249436416081 22.085810431977734,100.86961315158987 22.721817162120715,101.0044605860021 23.418395961867645,101.51013805522234 24.024116657325067,101.74612065262045 24.38754907459952,102.01581487702788 24.690409422386438,102.11695016370504 24.811553561477922,102.21808542459621 24.93269770068582,102.52149105170975 24.90241166576743,102.993454897427 24.78126752655953,103.26314827046008 24.750981491990387,103.63397635772708 24.29669097031001,104.51047772588208 24.114974761614576,105.1172852263553 23.902972518117167,105.45440010170569" stroke="#4dd2ff" stroke-linecap="round" stroke-linejoin="round" stroke-width="0.5"><title>2022-11-13 5.9km</title></polyline><polyline fill="none" points="133.0,130.87445668975124 133.5108395741554,130.4480246353487 133.72368939686567,130.32957117073238 133.95782420167234,130.06897337074042 134.46866377606057,129.73730308984523 135.21363815513905,129.14503374593914 135.72447772952728,128.623835678678 136.00118249899242,128.41061800555326 136.21403232158627,128.1974001688941 136.38431217963807,127.86572765305755 136.5758770200191,127.81834583275486 136.8100118249422,127.48667286423733 137.08671659429092,127.20238143316237 137.44856129272375,127.08392658433877 138.08711076062173,126.5864156675234 138.299960583332,126.46796055600862 138.53409538825508,126.25474122792366 138.89594008668792,126.06521279882872 139.04493496241048,126.01783067136421 139.44934962550178,125.56770005726139 139.70476941252127,125.44924451128463 139.83247930614743,125.30709778930759 140.15175404015463,125.16495099462918 140.64130863221362,124.83327485749032 140.72644856118131,124.71481899823993 140.76901852572337,124.5963630884653 140.8754434370203,124.4779071281082 140.9605833661044,124.45421593001811 141.0457232950721,124.45421593001811 141.55656286946032,124.16992139490321 141.64170279854443,124.0277740182064 142.32282223086804,123.43549249888747 142.51438707124908,123.31703604344511 142.7059519116301,123.31703604344511 142.83366180525627,123.24596214588382 143.110366574605,122.9853576994501 143.06779661006294,122.81951837890665 143.15293653926346,122.65367895932286 143.30193141498603,122.51153080657241 143.51478123757988,122.39307395697688 143.6850610957481,122.36938258103328 144.57903035078198,121.6823317987728 144.74931020883378,121.42172588498215 145.30271974764764,121.042662301159 145.66456444608048,120.6872897213907 146.00512416218407,120.45037441563909 146.13283405592665,120.42668287389097 146.72881355928257,119.92916003143182 146.8352384705795,119.52640279181651 146.96294836408924,119.4079446689575 146.96294836408924,119.360561405716 147.06937327550258,119.0999533131544 147.60149783198722,118.72088656021515 147.94205754820723,118.57873639449826 148.34647221118212,118.27074411904323 148.60189199843444,118.29443584466935 148.70831690961495,118.24705239137984 148.79345683869906,118.05751849751687 149.13401655491907,117.7021420977544 149.240441466216,117.53629962221021 149.3255813953001,117.01507976881112 149.43200630659703,116.94400425840286 149.62357114697807,116.6360101699247 149.8151359873591,116.13848053620313 150.09184075670782,115.11972660006722 150.0705557743786,114.93019057170022 150.19826566800475,114.57481016978272 150.2408356325468,113.98250848930911 150.51754040189553,113.39020554543822 150.560110366554,113.01113099831855 150.560110366554,112.53728708677227 150.68782026006375,111.77913514641114 151.11351990525145,111.02098113595275 151.30508474563248,110.38128707950818 151.41150965704583,110.16805539987399 151.45407962158788,109.97851599159185 151.87977926677559,109.31512704392662 152.1564840361243,108.7701992225484 152.2203389829956,108.72281414404279 152.34804887650535,108.72281414404279 152.51832873467356,108.7701992225484 152.8801734331064,109.0545095236157 153.15687820245512,109.19666456492268 153.1994481671136,109.14927955926396 153.24201813153923,109.14927955926396 153.41229798959102,109.31512704392662 153.90185258176643,109.57574431950343 154.51911706733517,109.81266890326515 154.98738667718135,110.04959328490077 155.75364603858907,110.35759467878961 157.41387465503067,111.25790448652697 157.73314938892145,111.35267377024866 158.0311391405994,111.518519938807 158.71225857303943,111.8265197033179 159.73393772158306,112.2055958675337 159.81907765066717,112.1819036224042 160.24477729585487,112.3714415266295 160.4363421362359,112.53728708677227 160.64919195894618,112.60836372501217 161.011036657379,112.79790133819915 161.26645644451492,113.01113099831855 161.94757587695494,113.29543695718166 162.18171068187803,113.4612819653994 162.7564052027883,114.00620058082859 163.45880961755756,114.48004198583658 164.18249901453964,115.07234260506812 164.67205360648222,115.33295447731507 165.09775325178634,115.64095001103124 165.43831296800636,115.94894520312664 165.69373275514226,116.09109671507031 166.2258573116269,116.65970203498728 166.52384706342127,116.84923688293202 166.6302719747182,117.01507976881112 166.8856917617377,117.22830619069282 167.18368151353206,117.41784065056709 167.73709105234593,117.6547585434455 168.2053606621921,117.98644325390342 168.39692550245672,118.17597719636979 169.07804493489675,118.69719487102702 169.6953094204655,119.31317813432543 170.6105636578286,119.90546844521305 170.84469846263528,120.16607578191906 171.3555380370235,120.56883209376247 172.01537248701788,121.042662301159 172.22822230972815,121.23219415781205 172.80291683087125,121.61125748284394 173.05833661800716,121.89555463721626 173.35632636968512,122.06139450951014 173.56917619227897,122.27461705694441 174.1864406778477,122.70106166068581 174.69728025223594,123.15119692095323 174.82499014562927,123.1985795374203 175.63381947169546,124.16992139490321 175.95309420570266,124.40683352778433 176.3149389041355,124.78589251983794 176.35750886856113,124.92803950852249 176.5703586913878,125.21233326761285 177.4856129286345,126.23105018140632 178.08159243199043,127.03654463065322 178.4860070948489,127.43929097926593 178.76271186443046,127.79465491953306 179.550256208051,128.60014483417035 179.65668111934792,128.623835678678 179.86953094194178,128.8370531880646 180.27394560491666,129.38194163504522 180.99763500189874,129.90313827976934 181.9554592036875,130.3769525626849 183.0197083168896,130.73231274436694 183.25384312169626,130.7796940675762 183.89239258959424,130.80338472613948 185.06306661409326,131.13505373409134 185.55262120615225,131.18243498858646 185.80804099317174,131.13505373409134 186.10603074496612,131.18243498858646 186.63815530145075,131.32457870364306 186.8510051240446,131.41934113990283 187.0,131.34826931572752 187.0,131.22981623501983 186.95743003534153,131.18243498858646 186.74458021274768,131.08767247147625 186.46787544328254,131.0402912007994 185.95703586901072,131.0402912007994 185.4461962947389,130.9455286351731 184.82893180917017,130.87445668975124 183.87110760738142,130.6375500736467 183.25384312169626,130.42433394645923 182.84942845872138,130.16373623535037 181.18919984227978,129.4293231886113 180.84864012605976,129.05027053368394 180.4655104452977,128.860744012316 180.18880567594897,128.623835678678 179.74182104843203,128.10263663332444 179.52897122572176,127.96049126939033 179.1458415450761,127.58143660993665 178.91170674015302,127.32083623149083 178.82656681106891,127.15499949970399 178.5498620417202,126.79963474097895 178.3795821836684,126.68117972041364 177.8900275916094,126.18366808211431 177.54946787538938,125.7572288258234 177.27276310592424,125.33078891472542 176.80449349619448,124.88065718713915 176.3149389041355,124.24099505602499 175.37839968455955,123.24596214588382 175.14426487963647,123.08012298098765 174.44186046510004,122.44045670286869 172.31336223881226,120.66359819992795 171.39810800144915,120.04761793190846 170.18486401252449,119.07626165630063 169.58888450916857,118.64981148639345 168.50335041387007,117.72583387186751 167.99251083948184,117.44153244892368 167.4603862829972,117.01507976881112 167.31139140715823,116.94400425840286 167.0559716199059,116.70708575917524 166.94954670860898,116.51755081419833 166.77926685055718,116.51755081419833 166.5451320456341,116.35170763125643 165.65116279071663,115.5698741489905 165.0551832873607,115.11972660006722 164.86361844686326,114.88280654436676 164.50177374843042,114.59850221071974 162.37327552225906,113.10589968366548 161.54316121398006,112.72682474841713 161.03232163970824,112.4425182073901 160.4150571540231,112.13451912614983 158.5206937326584,111.30528913246235 158.2865589277353,111.23421216060524 157.56286953086965,110.94990409130696 157.30744974361733,110.80774994753301 157.24359479686245,110.80774994753301 156.92432006297167,110.61821097589564 156.4347654710291,110.33390227594646 156.24320063064806,110.31020987112424 155.47694126912393,109.97851599159185 155.07252660614904,109.76528400264215 153.58257784775924,109.12558705342235 152.43318880558945,108.58065886006807 152.3906188410474,108.58065886006807 152.19905400066637,108.7701992225484 152.11391407158226,108.7701992225484 152.0500591249438,108.91235440943274 151.79463933769148,108.88866188336397 151.60307449731044,108.98343197564827 151.17737485200632,109.95482355647255 151.1560898697935,110.09697813694947 150.94324004719965,110.49974905297859" stroke="#4dd2ff" stroke-linecap="round" stroke-linejoin="round" stroke-width="0.5"><title>2022-11-10 5.6km</title></polyline><polyline fill="none" points="62.612228479469195,179.68608482542913 62.52534191473387,179.49267208675155 62.090909090824425,179.05749318317976 61.74336283188313,178.52560740313493 61.43925985507667,178.1871343741659 61.30893000820652,177.897014474147 60.70072405482642,177.26842084818054 59.962188254110515,176.68817995931022 59.31053901859559,175.9145245172549 58.74577634758316,175.67275697505102 57.79002413502894,175.5760499293101 57.35559131135233,175.76946400431916 55.79163314541802,176.97830047801835 54.44489139178768,178.09042775724083 53.92357200314291,178.67066721082665 52.35961383744143,179.78279117005877 50.23089300096035,181.37844347499777 49.49235720024444,182.10373849258758 48.92759452946484,182.49056212237338 47.84151246980764,183.6026785884169 47.53740949323401,183.74773709697183 47.27674979879521,183.74773709697183 46.58165728091262,183.40926718577975 45.79967819782905,182.87738548853667 44.93081255024299,182.5389150576084 44.5832662913017,182.248797384731 43.714400643715635,181.81362059671665 43.149637972703204,181.18503131356556 40.15205148840323,178.96078671474243 39.37007240555249,177.897014474147 38.370876910630614,176.92994706862373 38.110217216424644,176.54311964439694 37.936444086954,175.96287801332073 37.41512469830923,174.85074656031793 36.89380530966446,173.93202762753936 36.63314561545849,173.59355185588356 36.285599356517196,172.4330619617249 36.15526950918138,172.2880005579791 35.89460981497541,172.1912929348182 34.721641190582886,172.33635436324403 34.54786806111224,172.4814157548244 34.54786806111224,172.62647710909368 35.11263073189184,173.73861292557558 35.32984714396298,173.98038129269844 35.54706355603412,174.70568577514496 36.11182622681372,175.76946400431916 36.024939662078395,175.67275697505102 36.45937248598784,176.10793847672176 37.02413515700027,176.92994706862373 37.41512469830923,177.84866114298347 37.76267095748335,178.42890084389364 38.153660498792306,178.81572698138189 38.935639581875876,179.68608482542913 39.37007240555249,180.2663226457662 39.84794851159677,180.74985370913055 40.10860820603557,181.23338436003542 40.36926790024154,181.57185557030607 41.93322606594302,182.92573839065153 42.411102172220126,183.55432574398583 42.932421560632065,183.55432574398583 43.193081255070865,183.6026785884169 43.757843925850466,183.55432574398583 44.3226065968629,183.79608992498834 45.40868865628727,184.52138184959767 46.103781174635515,185.2466728463187 46.71198712801561,185.44008362205932 48.275945293717086,186.45548911229707 48.40627514082007,186.55219430226134 48.58004827029072,186.50384170928737 49.057924376334995,186.89066233712947 49.70957361231558,187.2774827008834 49.97023330652155,187.51924529427197 52.44650040217675,189.1148758250638 52.83748994348571,189.55004700861173 52.92437650845386,189.74345631635515 52.8809332260862,190.61379738448886 52.53338696714491,191.2423762138351 51.05631536617875,192.25777131243376 50.31777956546284,192.98305241233902 49.622687047347426,193.4182206268306 48.9710378118325,194.09514829685213 46.88576025725342,195.88416753406636 45.66934835072607,196.75449917581864 45.40868865628727,196.80285089462996 45.19147224468179,197.18966449593427 42.71520514879376,198.30175212951144 41.281576830428094,198.83361935708672 40.543041029712185,199.60724352492252 39.67417538212612,199.89735231554369 39.37007240555249,199.89735231554369 38.80530973477289,200.04240665544057 38.19710378115997,199.84900086087873 37.45856798044406,199.99405521305744 36.024939662078395,199.94570376636693 34.54786806111224,200.09075809369097 33.20112630724907,200.04240665544057 32.59292035410181,200.23581238405313 31.767497988883406,200.18746095796814 29.29123089276254,200.23581238405313 27.90104585676454,200.13910952786682 25.859211584785953,200.18746095796814 25.294448913773522,200.23581238405313 24.94690265483223,200.4292180465418 23.947707160376012,200.62262364319758 23.252614642027766,200.57427225029096 22.470635559177026,200.76767779735383 22.29686242947355,200.6709750321461 21.905872888164595,200.62262364319758 20.99356395821087,200.62262364319758 20.037811745656654,200.52592085313518 18.256637168116868,200.71932641672902 17.127111826324835,200.4292180465418 15.69348350749351,200.52592085313518 15.172164118848741,200.4292180465418 14.86806114250794,200.28416380583076 14.520514883566648,199.99405521305744 14.129525342024863,199.36548608588055 13.912308929953724,199.1720800602925 13.651649235747755,198.73691626195796 13.608205953380093,197.28636785491835 13.738535800483078,197.1413128101267 13.738535800483078,196.99625772825675 13.608205953380093,196.02922290045535 13.608205953380093,195.49735304212663 13.477876106277108,194.91713080956833 13.477876106277108,194.33690798305906 13.2606596944388,193.85338850755943 13.2606596944388,193.1764605488861 13.434432823909447,191.62919360870728 13.434432823909447,189.74345631635515 13.52131938864477,189.16322819533525 13.434432823909447,188.72805671492824 13.173773129703477,187.85771275195293 13.390989541541785,187.0357200044673 13.52131938864477,185.92361027287552 13.52131938864477,184.5697346116067 13.390989541541785,183.8927955685649 13.434432823909447,183.45762004255084 13.390989541541785,182.68397383851698 13.173773129703477,181.13667826296296 13.130329847102985,180.4113820081693 13.173773129703477,179.8311443362618 13.086886564735323,179.39596569247078 13.130329847102985,178.96078671474243 13.0,178.47725412563886 13.130329847102985,176.54311964439694 13.2606596944388,176.20464543177513 13.2606596944388,174.8023929693736 13.173773129703477,173.8836739581311 13.173773129703477,173.59355185588356 13.477876106277108,172.91659970628098 13.825422365218401,172.52976954367477 14.129525342024863,172.2880005579791 14.824617859907448,171.99787763896165 15.997586484299973,171.99787763896165 16.69267900241539,171.8528161238646 17.648431214736775,171.9495238046511 18.213193885749206,172.0945852951263 18.995172968367115,171.90116996632423 19.429605792509392,171.90116996632423 20.99356395821087,171.70775457157288 21.81898632342927,171.80446227721404 22.123089300235733,171.56269298208645 22.55752212391235,171.56269298208645 22.905068382853642,171.41763135563815 22.948511665221304,171.3692774719675 22.948511665221304,171.41763135563815 23.035398230189458,171.41763135563815 23.296057924395427,171.80446227721404 23.60016090120189,171.65940071252408 23.33950120676309,171.70775457157288 23.035398230189458,171.65940071252408 22.687851971015334,171.46598523517605 22.55752212391235,171.27256969187874 22.55752212391235,170.9824462532415 22.905068382853642,170.64396872045472 23.296057924395427,169.82195101387333 23.33950120676309,169.4351187395514 23.687047465937212,168.3229744801065 23.469831053866073,168.22626618051436 23.426387771731243,167.8394328172435 23.513274336233735,166.6789311436005 23.773934030672535,165.42171831586165 23.773934030672535,165.27665511786472 23.64360418333672,165.17994629847817 23.60016090120189,164.98652861040318 23.687047465937212,162.23031938442728 23.556717618834227,161.2148705018917 23.60016090120189,160.73132277553668 24.773129525361583,159.8125809591147 24.94690265483223,159.57080654945457 25.81576830241829,159.4740967566031 25.859211584785953,159.42574185406556 26.119871279224753,159.42574185406556 26.641190667869523,159.28067712165648 27.07562349154614,159.23232220270438 27.987932421499863,159.42574185406556 28.68302493961528,159.4740967566031 30.50764279975556,159.37738694733707 30.81174577632919,159.5224516550661 31.984714400721714,159.4740967566031 32.46259050699882,159.57080654945457 33.20112630724907,159.5224516550661 33.635559130925685,159.66751632565865 34.02654867246747,161.5049989396939 33.98310539009981,161.98854600597406 34.20032180217095,162.71386583196 34.113435237435624,163.48753929021768 34.156878519570455,164.06779369089054 34.06999195506796,164.45462962804595 34.113435237435624,164.8414653011132 34.02654867246747,165.27665511786472 34.113435237435624,165.32500952132978 34.02654867246747,166.05032507830765 34.02654867246747,167.93614118290134 34.06999195506796,168.51639102981426 35.764279967872426,169.6285349096288 35.764279967872426,169.82195101387333 36.06838294467889,170.30549098562915 36.19871279154904,171.22421579580987 36.67658889782615,171.56269298208645 37.54545454564504,171.80446227721404 38.19710378115997,171.8528161238646 39.06596942874603,171.70775457157288 39.239742558216676,171.61104684928432 40.58648431207985,171.65940071252408 41.75945293647237,171.56269298208645 42.28077232511714,171.32092358381487 43.10619469033554,171.22421579580987 44.8873692676425,171.56269298208645 45.49557522148825,171.56269298208645 46.103781174635515,171.41763135563815 47.14641995169222,171.41763135563815 48.18905872898176,171.46598523517605 48.62349155265838,171.61104684928432 49.14481094130315,171.61104684928432 50.75221238937229,171.3692774719675 52.0555108608678,171.46598523517605 53.22847948502749,171.70775457157288 53.92357200314291,171.9495238046511 55.57441673357971,172.77153842622647 56.35639581666328,173.11001468874747 56.747385357972234,173.20672215503873 57.35559131135233,173.64190555003006 58.00724054710008,173.98038129269844 58.137570393970236,174.27050319703994 57.96379726473242,174.65733217191882 57.39903459371999,175.28592869313434 57.18181818164885,175.72111049166415 56.83427192270756,176.20464543177513 56.1826226869598,176.83324023726163 55.183427192270756,177.65524777735118 55.00965406280011,177.70360112504568 54.83588093309663,177.9937211239012 55.400643604109064,177.31677422864595 56.00884955772199,176.88159365509637 56.530168945901096,176.63982652523555 56.57361222850159,176.54311964439694 56.486725663766265,176.54311964439694 56.66049879323691,176.39805929234717 57.8769106999971,175.76946400431916 58.31134352367371,175.62440345430514 58.78921962995082,175.5760499293101 59.09332260675728,175.72111049166415 59.31053901859559,176.01123150525382 60.3531777956523,176.78488681541057 61.22204344323836,177.60689442564035 62.39501206763089,178.81572698138189 62.74255832657218,179.58937846432673 63.61142397439107,180.4113820081693 63.82864038622938,180.3630288914428 64.263073209906,180.02455695951357 65.17538213985972,180.02455695951357 65.95736122271046,179.78279117005877 66.34835076425225,179.58937846432673 67.0,179.05749318317976" stroke="#4dd2ff" stroke-linecap="round" stroke-linejoin="round" stroke-width="0.5"><title>2022-11-07 5.2km</title></polyline><polyline fill="none" points="167.7573529991787,206.95431702205678 167.4289994330611,207.0 166.89542488823645,206.45180400798563 166.32080614753067,205.9949735860282 163.28353566094302,202.8885163832456 163.16040307376534,202.614416353259 163.2424914650619,202.20326604534057 163.65293342294171,201.70074857358122 164.35068475082517,201.28959756426048 166.0745409729425,199.78204116295092 166.69020390929654,199.41657230519922 167.7573529991787,198.54858276905725 168.08570656529628,197.90901063170168 168.08570656529628,197.5435404960008 168.16779495682567,197.17807011093828 168.16779495682567,196.76691562961787 166.2797619518824,194.57408639832283 165.4999222322367,193.06651109352242 165.4999222322367,192.9294585827156 165.25365705764852,192.10714278084924 165.13052447023802,190.9193510603509 165.17156866611913,189.18334303764277 165.08948027482256,188.58944426424569 165.33574544917792,186.35089681402314 165.3767896448262,186.25952733168378 165.8282757983543,185.89404924592236 166.1155851688236,185.75699489942053 167.71630880329758,185.93973402035772 168.37301593576558,185.89404924592236 169.23494404670782,185.93973402035772 170.71253509423696,185.89404924592236 171.6155074010603,185.71131010953104 172.92892166553065,185.66562531579984 173.46249621012248,185.52857091079932 173.91398236365058,185.57425571640488 175.1863524322398,185.48288610143936 176.13036893494427,185.16309232622734 176.91020865435712,184.9803529404744 177.1564738289453,184.79761349238106 177.3206506120041,184.4778193080565 177.69004837376997,184.1580249327235 178.46988809318282,183.1986406610813 178.59302068059333,182.92453055342776 178.9213742467109,182.46768006237107 179.1676394212991,181.87377384121646 179.1676394212991,181.5539779108076 179.372860400239,181.46260760980658 179.61912557459436,181.00575587150524 179.78330235765316,180.09205122553976 179.74225816200487,179.81793952782755 179.78330235765316,179.04128895528265 179.74225816200487,178.44737893407 179.61912557459436,178.12758095748723 179.49599298741668,177.3052424263733 179.372860400239,177.03112930202042 179.1676394212991,176.71133047965122 178.18257872294635,176.16310348268598 177.69004837376997,175.61487592442427 176.37663410929963,174.88390497348155 175.51470599859022,174.74684780917596 174.61173369153403,174.6554763468739 173.33936362317763,174.83821925593656 172.19012614153326,175.24939057367737 172.19012614153326,175.3407619347272 171.8207283797674,175.88898977375356 171.28715383494273,176.30016028450336 170.79462348576635,177.16818588183378 170.63044670247473,178.17326639438397 170.34313733223826,178.81286210208782 170.38418152811937,179.1783450205694 170.34313733223826,179.68088362622075 170.42522572376765,180.73164464146248 170.34313733223826,181.1884966136422 170.46626991964877,181.1884966136422 170.79462348576635,181.78240359466872 170.91775607294403,182.01082918141037 170.95880026882514,182.42199499171693 171.12297705188394,182.6961053565028 171.45133061800152,182.87884552183095 171.65655159694143,182.74179040372837 171.8207283797674,182.78747544702492 172.1080377502367,183.3356956622447 172.72370068682358,184.06665507616708 173.79084977624007,184.56918909450178 174.48860110435635,184.7519286205934 175.3094850196503,184.7519286205934 176.33558991365135,184.56918909450178 176.41767830518074,184.7062437448476 176.82812026306055,184.7062437448476 177.3206506120041,184.29507968836697 177.36169480788521,184.1580249327235 177.73109256965108,183.83823036649846 178.30571131035686,182.97021558106644 178.42884389776736,182.55905019165948 179.0445068338886,181.5539779108076 179.12659522565082,181.27986696132575 179.29077200847678,181.1428114339069 179.29077200847678,180.82301506699878 179.57808137894608,179.9549953941023 179.53703718306497,179.13265966944164 179.61912557459436,178.67580594337778 179.49599298741668,178.21895182749722 179.53703718306497,177.9905246234266 179.1676394212991,176.98544376774225 179.0855510297697,176.84838714130456 178.9213742467109,176.02604664562386 178.67510907235555,175.3407619347272 178.63406487647444,175.3407619347272 178.51093228906393,175.11233350279508 178.51093228906393,175.02096210283344 178.71615326800384,174.5184191239241 178.18257872294635,173.33058838977013 178.18257872294635,173.05647323076846 178.26466711447574,172.96510147993104 178.34675550600514,172.5539284083061 178.26466711447574,172.05138311404153 178.30571131035686,171.41177933019935 178.18257872294635,171.0006050656957 178.05944613576867,170.72648871390265 177.69004837376997,170.81786084675696 177.279606416123,171.1376631889143 176.33558991365135,171.50315134602715 175.3094850196503,172.05138311404153 174.89904306200333,172.64530022922554 173.54458460165188,172.87372971361037 173.05205425270833,173.01078735740157 172.31325872894377,173.37627423595404 171.20506544341333,173.55901758174878 171.12297705188394,173.6960750501894 170.17896054917946,174.1529330247722 169.07076726364903,174.56410486876848 168.37301593576558,174.88390497348155 167.634220412001,175.3407619347272 166.89542488823645,175.5235046101152 165.9924525814131,175.88898977375356 163.9812869890593,175.93467540162965 161.92907720105723,176.208789087279 161.80594461364672,176.16310348268598 161.60072363493964,176.43721705125063 161.10819328553043,176.5285882097669 160.8208839155268,176.66564491804456 160.2462651745882,176.5742737830442 158.3171879737638,176.208789087279 158.07092279940844,176.2544746878848 157.61943664588034,176.3915314662736 157.29108307976276,176.61995935245068 157.08586210082285,176.66564491804456 156.30602238141,176.3915314662736 155.64931524917483,176.43721705125063 155.36200587893836,176.5742737830442 154.95156392129138,176.43721705125063 153.76128224423155,176.34584587730933 153.18666350352578,176.3915314662736 152.6530889584683,176.34584587730933 151.25758630270138,176.34584587730933 150.6829675619956,176.2544746878848 150.23148140870035,176.48290263244417 149.86208364670165,176.48290263244417 148.58971357811242,176.93975822941866 148.05613903305493,176.93975822941866 147.52256448823027,176.84838714130456 146.8658573559951,176.84838714130456 145.30617791693658,177.2595569154655 144.6494707847014,177.16818588183378 144.19798463140614,177.03112930202042 143.33605652023107,177.2595569154655 142.8845703669358,177.2138714005414 142.14577484340407,177.39661343672196 141.7353328857571,177.3052424263733 141.5711561026983,177.0768148325733 141.07862575352192,176.16310348268598 140.75027218740433,175.29507625618135 140.46296281693503,173.97018988171476 140.25774183822796,172.46255657169968 140.21669764234684,171.27472127706278 140.33983022975735,170.22394170454936 140.29878603387624,168.8533565546095 140.54505120846443,167.80257223028457 140.42191862128675,167.3000224766729 140.29878603387624,166.2949215544504 140.58609540434554,163.87353431232623 140.58609540434554,163.23392075984157 140.42191862128675,162.54861967699253 140.50400701281615,162.32018578780117 140.62713959999382,161.726257219736 140.75027218740433,161.40644925640663 141.65324449399486,160.35565031744773 141.89950966858305,159.67034555072314 142.22786323470064,159.44191043337923 143.0487471499946,158.57385609927587 144.40320561011322,157.38598999285023 144.8957359592896,156.88343046203954 145.14200113387778,156.56361960610957 145.1830453297589,156.19812125092722 145.38826630846597,156.1524339390744 145.79870826611295,156.1524339390744 146.12706183223054,156.06105930331978 146.7016805729363,155.42143641776056 148.58971357811242,154.0051258803869 149.32850910164416,153.3655005384935 149.82103945082054,153.13706273125717 150.06730462540872,153.04568758103414 150.8471443450544,153.41118808832834 151.58593986858614,153.95943838122184 152.03742602211423,154.1421883541625 152.28369119670242,154.37062573249568 152.36577958846465,154.64475045801373 152.28369119670242,154.78181276802206 152.28369119670242,154.96456246028538 152.36577958846465,155.42143641776056 153.022486720467,156.3808704596304 152.98144252458587,156.51793232531054 152.89935413305648,156.65499415580416 153.39188448246568,156.70068142493255 154.21276839752682,156.97480495728087 155.03365231282078,156.74636869013193 155.19782909564674,156.74636869013193 155.27991748740897,156.65499415580416 155.97766881552525,156.3808704596304 157.33212727541104,155.92399732093327 157.70152503740974,155.695560605207 158.5224089527037,155.4671237920411 159.58955804258585,154.64475045801373 160.2873093704693,154.41631319659064 161.35445846035145,153.95943838122184 161.9701213967055,153.593938248232 162.42160755000077,153.18275030059158 162.91413789917715,153.0 163.65293342294171,153.2741254272696 165.00739188306034,153.54825071414234 166.1155851688236,153.91375087821507 166.77229230082594,154.37062573249568 167.22377845435403,154.50768811276066 167.4289994330611,154.64475045801373 167.67526460788213,155.01024987362325 167.92152978247032,155.14731208997546 167.8804855865892,155.10162468842464 168.37301593576558,155.60418589165783 169.23494404670782,156.65499415580416 169.6453860043548,157.24892834940692 170.22000474506058,157.70580035768216 170.71253509423696,158.20835911636823 170.99984446447343,158.16267197599518 171.12297705188394,158.25404625292867 171.77968418388627,159.30484931636602 172.14908194565214,159.6246585350309 172.14908194565214,159.9901545510511 172.60056809941307,160.35565031744773 173.585628797533,161.6348835354729 174.03711495082825,162.54861967699253 174.40651271282695,163.00548716291087 174.69382208306342,163.82784765548422 175.1042640407104,164.51314710100996 175.3094850196503,164.92432634724537 175.67888278141618,165.33550527779153 175.96619215188548,165.79237038592692 176.25350152212195,166.0664892635832 176.62289928388782,166.84315865507233 176.78707606717944,167.3000224766729 177.279606416123,167.84825854803785 178.05944613576867,169.17316007005866 178.51093228906393,171.7315813176101 178.46988809318282,173.7417608652613 178.63406487647444,175.70624722301727 178.5519764847122,176.71133047965122 178.83928585518152,177.12250035919715 179.57808137894608,179.04128895528265 179.49599298741668,179.77225423118216 179.3318162043579,180.13773649491486 179.12659522565082,181.0971262503299 178.75719746365212,181.87377384121646 178.05944613576867,183.10727064078674 176.45872250106186,184.24939477368025 175.67888278141618,184.56918909450178 174.07815914670937,184.7519286205934 173.74980558059178,184.8432983601815 172.96996586117893,185.3915164708742 172.60056809941307,185.30014682473848 172.19012614153326,185.3458316497854 171.94386096694507,185.48288610143936 171.77968418388627,185.71131010953104 171.65655159694143,185.80267968552653 170.83566768141463,186.16815783359925 170.17896054917946,186.03110355723766 169.481209221296,185.71131010953104 168.2088391527068,185.89404924592236 167.18273425870575,185.89404924592236 166.40289453906007,185.80267968552653 165.5820106237661,185.93973402035772 165.54096642811783,186.12247307869256 165.13052447023802,186.48795100848656 165.04843607894145,186.80774399242364 164.96634768717922,187.40164474173798 164.96634768717922,191.01071974780643 165.00739188306034,191.1477727496531 165.13052447023802,191.33051003096625 165.08948027482256,191.19345707574394 165.00739188306034,191.65030012320494 165.04843607894145,192.33556396362837 165.25365705764852,192.97514275679714 165.9924525814131,194.61977043212391" stroke="#4dd2ff" stroke-linecap="round" stroke-linejoin="round" stroke-width="0.5"><title>2022-11-04 5.6km</title></polyline><polyline fill="none" points="13.0,256.0256106941961 13.119680851115845,255.75919680812513 13.07180851069279,255.6526311901398 13.0,255.6259897798882 13.0,255.54606553568738 13.31117021292448,255.0398781808617 13.57446808507666,254.74682196890353 14.292553191422485,254.16070872015553 15.29787234030664,253.4147448129661 15.60904255323112,253.12168707622914 17.093085106345825,252.05602026131237 17.260638297884725,251.84288646199275 17.38031914900057,251.60311076403013 17.47606382984668,251.52318549039774 17.595744680962525,251.52318549039774 17.73936170223169,251.38997665565694 17.882978723500855,251.20348419155926 18.242021276499145,250.93706619250588 18.40957446815446,250.69728979913634 18.52925531915389,250.64400613110047 18.744680851115845,250.5907224540133 19.151595744653605,250.21773646000656 20.46808510646224,249.36519537257846 20.82712765946053,248.91228197328746 21.186170212808065,248.5659359896381 21.56914893607609,248.32615777588217 21.73670212761499,248.2995157407131 21.952127659576945,248.1929475775396 22.1675531915389,248.00645320449257 22.526595744653605,247.8199587201234 22.9574468084611,247.44696941724396 23.053191489423625,247.42032730710343 23.07712765946053,247.31375884398585 23.148936170269735,247.20719034443027 24.17819148930721,246.43456763544236 24.321808510576375,246.1681455684302 24.53723404253833,246.06157667806838 24.824468085193075,245.68858527517295 25.27925531915389,245.3955202890793 25.853723404346965,244.80938949171104 26.3324468084611,244.59625074721407 26.59574468084611,244.27654235772206 26.88297872338444,244.1433304322709 28.03191489353776,243.21084536251146 28.05585106369108,243.05099049955606 28.630319148884155,242.7845655462006 28.94148936169222,242.49149783494067 29.03723404253833,242.35828514801688 29.156914893654175,242.03857446755865 29.252659574500285,241.9586467462359 29.39627659576945,241.93200416793115 29.39627659576945,241.85207641942543 29.468085106345825,241.82543383201119 29.563829787191935,241.85207641942543 29.683510638191365,242.25171495752875 29.755319148884155,242.35828514801688 29.898936170269735,242.4115702296258 29.99468085099943,242.30500005726935 29.97074468084611,242.25171495752875 29.851063829730265,242.35828514801688 30.521276595653035,242.464855302067 30.473404255346395,242.3316426037636 30.25797872338444,242.09185960364994 30.25797872338444,241.9586467462359 30.353723404346965,241.71886345971143 30.593085106345825,241.31922423973447 31.406914893654175,240.44001615565503 31.76595744676888,239.82723329984583 31.83776595746167,239.29437766526826 31.981382978730835,239.0279495070572 32.31648936169222,238.60166398112779 32.43617021269165,238.30859234448872 32.60372340423055,237.69580530628446 32.62765957438387,237.322803911753 32.771276595653035,237.13630304741673 32.914893617038615,235.85743697712314 32.962765957345255,235.6709352376347 33.082446808577515,235.40450398792746 33.202127659576945,234.97821351565653 33.22606382984668,234.57856566942064 33.34574468084611,234.09898757873452 33.46542553184554,233.35297575147706 34.0398936169222,232.10073760617524 34.279255319037475,231.4080079641135 34.781914893654175,230.39555418450618 35.04521276592277,230.07583125622477 35.21276595746167,229.96925687405746 35.40425531915389,229.9159696693241 36.26595744676888,230.1824056020414 36.960106382961385,230.6087026213645 37.534574468038045,230.8218509129074 38.013297872268595,231.08828607265605 38.372340425499715,231.2215035671834 38.80319148930721,231.51458185524098 39.16223404253833,231.6477991679858 40.047872340423055,232.12738102322328 40.64627659576945,232.50038862368092 40.93351063830778,232.60696214198833 41.67553191492334,233.00661251155543 42.130319148884155,233.16647251619725 42.369680851115845,233.2996891241637 42.680851063807495,233.35297575147706 43.039893617038615,233.5661221697228 43.638297872268595,233.77926844239119 44.14095744676888,233.85919825721066 44.308510638191365,234.04570107875043 44.59574468084611,234.23220378890983 44.978723404114135,234.39206316607306 45.218085106345825,234.55192246145452 45.74468085099943,234.73842486928334 46.67819148930721,235.35121771073318 47.300531914806925,235.64429212294635 47.61170212761499,236.04393860523123 48.521276595653035,236.73665796307614 49.430851063807495,237.3494468833087 49.885638297884725,237.69580530628446 50.05319148930721,237.72244824600057 50.627659574267454,238.17537787326728 50.81914893607609,238.25530656275805 51.20212765946053,238.86809250307851 51.65691489353776,239.16116361453896 51.70478723407723,239.2144492417574 51.680851063807495,239.29437766526826 51.82446808507666,239.4009488649899 52.30319148930721,239.58744837687118 52.66223404253833,239.82723329984583 52.997340425499715,239.96044706640532 53.667553191422485,240.41337344775093 54.026595744653605,240.78637115086894 54.337765957345255,241.02615515337675 54.888297872268595,241.6122930510901 55.07978723407723,241.66557825994096 55.94148936169222,242.4115702296258 56.468085106345825,242.67799550117343 56.73138297861442,242.97106303743203 56.73138297861442,243.0243480144709 56.946808510576375,243.29077276334283 57.23404255323112,243.47726995230187 57.47340425522998,243.74369431470404 57.784574468038045,244.0101184498635 57.85638297861442,244.11668804028886 58.359042553114705,244.3031847361126 59.675531914806925,245.1557396412536 59.89095744676888,245.1557396412536 60.39361702115275,245.55537395202555 60.58510638284497,245.79515429289313 61.39893617015332,246.62106294708792 61.805851063807495,247.10062180858222 61.925531914806925,247.28711672249483 62.188829787191935,247.55353783495957 62.404255319037475,247.92652701056795 62.64361702115275,248.21958962175995 63.577127659576945,249.1254177724477 63.888297872268595,249.2852695263573 64.00797872338444,249.5783308626269 64.41489361703862,250.32430393234245 64.60638297873084,250.484155072656 64.91755319142248,250.8837825654773 65.2765957446536,251.20348419155926 65.51595744665246,251.5498272505647 65.75531914876774,251.73631950787967 66.0425531915389,251.76296124979854 66.21010638284497,252.0293785443355 66.37765957438387,252.08266197604826 66.49734042549971,252.21587051535607 66.52127659576945,252.34907899788232 66.97606382973026,252.69542078662198 67.0,252.4556457430299 66.92819148930721,252.32243730596383 66.78457446803804,252.21587051535607 66.54521276580635,252.1625871064607 66.09042553184554,251.76296124979854 65.82712765957695,251.49654372796067 65.51595744665246,251.2301259789383 65.44414893607609,251.04363341940916 65.08510638296138,250.7505734579463 64.65425531903747,250.16445271030534 64.48670212761499,249.8181081150542 63.72074468084611,248.91228197328746 63.33776595746167,248.37944183923537 63.050531914806925,248.11302143131616 62.571808510576375,247.44696941724396 62.164893617038615,246.96741108759306 61.734042553114705,246.62106294708792 61.49468085099943,246.3546410391573 61.255319148884155,246.19478778541088 60.82446808507666,245.79515429289313 60.297872340423055,245.36887800393743 59.675531914806925,244.7827471565979 58.98138297861442,244.32982711208751 58.765957446652465,244.06340324960183 58.406914893654175,243.79697915993165 57.688829787191935,243.13091794130742 56.92287234030664,242.67799550117343 55.29521276592277,241.39915212462074 54.38563829776831,240.83965650066966 53.547872340423055,240.0137325571268 52.398936170269735,239.24109205187415 52.087765957345255,238.9746638481447 51.896276595653035,238.94802101529785 51.75265957438387,238.89473534273566 51.27393617015332,238.33523523190524 50.24468085099943,237.5093046646798 49.59840425522998,236.89651605824474 48.521276595653035,236.01729552235338 48.42553191492334,235.99065243711811 47.659574468038045,235.51107651507482 47.037234042421915,235.0581430235179 46.079787233960815,234.4986360387702 45.601063829730265,234.28549025711254 45.38563829776831,234.12563082529232 45.19414893607609,234.12563082529232 44.5,233.752625166293 43.27925531915389,233.1931158422958 42.202127659576945,232.79346571143833 41.43617021269165,232.3938150689646 41.05319148930721,232.2605980745575 40.263297872268595,231.8343033103156 39.760638297884725,231.67444262368372 39.42553191492334,231.48793838583515 38.731382978730835,231.2215035671834 38.51595744676888,231.08828607265605 38.085106382961385,230.9017814846884 37.86968085099943,230.8484944390948 36.720744680729695,230.31562348309672 36.361702127731405,230.1824056020414 36.122340425499715,230.02254406976863 32.67553191492334,228.37063677655533 30.73670212761499,227.3315293242631 29.611702127731405,226.82529623579467 28.151595744653605,226.02597916181548 27.601063829730265,225.81282759652822 27.146276595653035,225.5996758856927 26.739361702115275,225.46645599254407 26.69148936169222,225.38652402942535 26.35638297861442,225.14672801701818 25.351063829730265,224.50727108388674 24.561170212808065,224.18754212622298 24.393617021269165,224.16089803160867 24.034574468038045,223.97438930583303 23.89095744676888,224.00103341633803 23.938829787191935,224.2674743963289 24.13031914900057,224.42733887510258 25.710106382961385,225.25330404532724 25.99734042561613,225.46645599254407 27.098404255346395,225.81282759652822 27.625,226.13255488991854 27.601063829730265,226.1591988162836 28.29521276592277,226.5322135462775 29.03723404253833,226.82529623579467 29.539893617038615,227.14502249241923 30.521276595653035,227.57132365865982 30.90425531915389,227.8111178088584 31.454787233960815,228.02426801007823 32.02925531915389,228.39728051197017 32.771276595653035,228.6637177405064 33.63297872338444,229.11666050730855 33.920212765806355,229.1965915155306 34.5425531915389,229.56960261703352 34.710106382961385,229.80939523264533 34.73404255323112,230.2090491828567 34.422872340423055,230.7952073844208 34.13563829776831,231.48793838583515 33.99202127661556,231.72772952838568 33.94414893607609,231.96752048667986 33.561170212808065,232.7401789886062 33.46542553184554,233.1131858570734 33.393617021269165,233.24640248776996 33.34574468084611,233.27304580708733 33.15425531915389,233.7259818878665 32.962765957345255,234.5252792512183 32.89095744676888,235.27128827787237 32.723404255346395,235.77750767377438 32.555851063807495,236.6567288848164 32.38829787238501,237.2695179619477 32.38829787238501,237.53594762037392 32.43617021269165,237.58923352477723 32.364361702115275,237.85566291041323 32.31648936169222,238.17537787326728 32.077127659576945,239.0279495070572 31.789893617038615,239.4808772408578 31.64627659576945,239.93380431766855 31.38297872338444,240.25351715291617" stroke="#4dd2ff" stroke-linecap="round" stroke-linejoin="round" stroke-width="0.5"><title>2022-10-27 6.5km</title></polyline></svg>