<?xml version="1.0" encoding="utf-8" ?>
<svg baseProfile="full" height="300mm" version="1.1" viewBox="0,0,200,300" width="200mm" xmlns="http://www.w3.org/2000/svg" xmlns:ev="http://www.w3.org/2001/xml-events" xmlns:xlink="http://www.w3.org/1999/xlink"><defs /><rect fill="#222222" height="300" width="200" x="0" y="0" /><text fill="#FFFFFF" style="font-size:12px; font-family:Arial; font-weight:bold;" x="10" y="20">Over 10km Runs</text><text fill="#FFFFFF" style="font-size:4px; font-family:Arial" x="10" y="280">ATHLETE</text><text fill="#FFFFFF" style="font-size:9px; font-family:Arial" x="10" y="290">Jinan</text><text fill="#FFFFFF" style="font-size:4px; font-family:Arial" x="120" y="280">STATISTICS</text><text fill="#FFFFFF" style="font-size:3px; font-family:Arial" x="120" y="285">Number: 2</text><text fill="#FFFFFF" style="font-size:3px; font-family:Arial" x="120" y="290">Weekly: 2.0</text><text fill="#FFFFFF" style="font-size:3px; font-family:Arial" x="141" y="285">Total: 4.6 km</text><text fill="#FFFFFF" style="font-size:3px; font-family:Arial" x="141" y="290">Avg: 2.3 km</text><text fill="#FFFFFF" style="font-size:3px; font-family:Arial" x="167" y="285">Min: 0.0 km</text><text fill="#FFFFFF" style="font-size:3px; font-family:Arial" x="167" y="290">Max: 4.6 km</text><polyline fill="none" points="58.96506008133292,107.10024869674817 60.986485693603754,103.95025796862319 69.88075838424265,100.80026535922661 63.412196427583694,100.80026535922661 62.60362618230283,102.15026242285967 60.986485693603754,102.15026242285967 58.15648983605206,99.90026712603867 57.34791959263384,97.65027086855844 56.13506422564387,88.20027611032128 56.943634470924735,75.15025551524013 56.13506422564387,69.30023580091074 54.9222088586539,66.6002245140262 55.730779103934765,62.10020263120532 56.943634470924735,58.95018502930179 59.369345204904675,56.70017130393535 70.68932862952352,45.45008828211576 77.96646083146334,41.40005251998082 82.00931205414236,40.05003991024569 86.86073352210224,39.60003562876955 94.13786572404206,36.450004587415606 96.96786158159375,36.0 109.50070037506521,37.80001812102273 119.60782843269408,40.95004835492 127.69353087805212,47.70010680705309 129.31067136861384,49.950124370865524 135.37494820170105,54.00015356764197 136.99208869226277,56.25016844365746 140.63065479509532,68.4002321921289 144.6735060159117,78.75026442203671 145.07779113948345,83.70027265511453 141.43922503851354,94.05027486244217 141.0349399149418,97.65027086855844 139.4177994262427,99.00026873871684 139.4177994262427,101.25026441831142 136.58780356869102,108.9002425535582 128.90638624690473,120.15019024629146 117.18211769685149,130.50012093083933 106.26641939394176,135.00008445931599 97.77643182687461,135.90007670456544 95.35072109103203,135.45008060196415 97.37214670330286,131.8501103920862 96.15929133631289,126.90014734398574 96.96786158159375,123.75016843993217 98.58500207029283,121.95017964951694 104.24499378167093,118.35020022792742 111.92641110904515,111.60023218858987 113.54355159588158,105.30025422619656 114.35212184116244,100.35026626195759 113.54355159588158,96.30027265427634 112.73498135246336,69.75023754872382 111.92641110904515,61.200197795405984 107.88355988450348,54.450156619306654 95.75500621460378,52.65014418121427 92.52072523534298,53.55015047593042 84.03073766641319,59.400187658611685 81.20074181072414,67.50022843107581 82.41359717585146,86.85027547786012 81.60502693243325,91.35027624573559 81.20074181072414,102.60026136646047 82.41359717585146,108.9002425535582 85.24359303340316,113.85022249398753 88.0735888890922,117.00020731193945 91.30786986835301,118.35020022792742 96.56357645988464,119.2501953127794 100.60642768256366,118.80019778991118 107.88355988450348,115.65021404856816 109.09641525149345,113.85022249398753 113.13926647603512,107.10024869674817 113.94783671945333,102.15026242285967 113.94783671945333,94.05027486244217 113.13926647603512,64.80021622264758 111.11784086190164,58.95018502930179 108.28784500807524,55.800165546126664 105.4578491486609,54.00015356764197 98.58500207029283,52.20014097588137 91.71215499006212,54.00015356764197 86.05216327868402,58.050179654266685 82.81788229942322,63.00020731566474 79.98788644187152,71.55024415068328 80.79645668715239,83.25027209799737 81.20074181072414,106.65025013685226 84.4350227881223,117.00020731193945 91.71215499006212,119.70019279886037 96.15929133631289,119.70019279886037 101.81928304769099,118.80019778991118 105.05356402695179,117.45020498847589 108.69213012978435,115.2002162183635 112.33069622889161,108.9002425535582 114.35212184116244,102.15026242285967 113.13926647603512,84.15027317404747 112.33069622889161,63.90021184552461 109.09641525149345,58.050179654266685 105.05356402695179,54.90015963371843 98.18071694858372,54.00015356764197 91.30786986835301,54.90015963371843 88.0735888890922,58.050179654266685 85.64787815511227,58.95018502930179 85.24359303340316,61.650200232863426 81.20074181072414,70.20023925649002 80.39217156544328,73.80025154165924 81.60502693243325,82.80027150455862 81.20074181072414,103.05026027280837 82.00931205414236,109.35024092299864 84.03073766641319,112.9502264871262 85.64787815511227,114.75021834857762 95.35072109103203,121.95017964951694 96.15929133631289,120.600187654607 101.81928304769099,120.600187654607 106.26641939394176,118.35020022792742 111.92641110904515,112.5002284264192 113.94783671945333,107.55024721939117 114.75640696287155,103.95025796862319 113.54355159588158,99.00026873871684 113.13926647603512,79.20026536192745 113.94783671945333,73.35025014122948 113.54355159588158,67.05022649187595 112.33069622889161,62.10020263120532 107.47927476093173,56.70017130393535 102.22356817126274,54.450156619306654 97.77643182687461,53.55015047593042 88.88215913623571,55.35016260948032 83.62645254284143,61.650200232863426 80.39217156544328,67.95023033116013 81.20074181072414,107.55024721939117 83.22216741926968,112.5002284264192 86.86073352210224,116.55020959489048 94.13786572404206,120.15019024629146 96.15929133631289,119.70019279886037 101.41499792784452,120.600187654607 105.05356402695179,120.15019024629146 106.67070451751351,117.9002026268281 110.30927061848342,115.2002162183635 113.94783671945333,109.35024092299864 114.75640696287155,103.95025796862319 113.13926647603512,67.95023033116013 112.73498135246336,64.80021622264758 110.71355574019253,60.75019531883299 108.69213012978435,58.95018502930179 101.81928304769099,54.450156619306654 92.92501035705209,54.450156619306654 86.45644840039313,55.800165546126664 84.4350227881223,57.60017690854147 80.79645668715239,63.00020731566474 79.58360131829977,68.4002321921289 80.39217156544328,70.20023925649002 81.20074181072414,84.6002736533992 81.60502693243325,109.8002392523922 83.62645254284143,112.9502264871262 86.05216327868402,115.65021404856816 90.9035847466439,119.2501953127794 101.01071280427277,119.2501953127794 105.86213427223265,118.80019778991118 107.07498963922262,117.45020498847589 110.30927061848342,117.00020731193945 112.73498135246336,113.40022450964898 114.35212184116244,109.35024092299864 114.75640696287155,101.25026441831142 113.54355159588158,90.00027641793713 112.73498135246336,70.20023925649002 111.92641110904515,66.15022249845788 109.90498549491167,60.75019531883299 105.86213427223265,56.70017130393535 96.56357645988464,53.55015047593042 90.9035847466439,54.90015963371843 89.28644425608218,56.25016844365746 85.64787815511227,59.850190250668675 82.00931205414236,67.50022843107581 80.79645668715239,73.80025154165924 82.00931205414236,81.45026948815212 81.60502693243325,98.1002701963298 82.41359717585146,107.55024721939117 87.26501864567399,115.65021404856816 94.94643596932292,117.9002026268281 101.41499792784452,118.35020022792742 109.90498549491167,114.75021834857762 114.75640696287155,108.45024414826185 115.56497721001506,104.40025675995275 114.35212184116244,100.35026626195759 113.94783671945333,80.55026795295998 113.13926647603512,77.40026136906818 112.73498135246336,70.20023925649002 111.11784086190164,64.3502140538767 107.47927476093173,58.95018502930179 99.7978574372828,53.55015047593042 96.56357645988464,53.55015047593042 93.32929548062384,54.00015356764197 85.64787815511227,57.60017690854147 81.20074181072414,68.4002321921289 80.39217156544328,73.35025014122948 81.60502693243325,82.35027087200433 81.20074181072414,103.95025796862319 81.60502693243325,108.9002425535582 83.22216741926968,113.85022249398753 87.66930376924574,117.45020498847589 95.35072109103203,121.05018502473831 105.86213427223265,119.2501953127794 109.90498549491167,117.9002026268281 110.71355574019253,115.2002162183635 114.35212184116244,109.8002392523922 115.56497721001506,104.8502555117011 114.35212184116244,103.50025913957506 115.56497721001506,96.30027265427634 114.35212184116244,90.90027634100989 114.35212184116244,78.75026442203671 113.54355159588158,70.20023925649002 111.92641110904515,65.25021835230291 105.86213427223265,58.050179654266685 98.98928719386458,55.35016260948032 91.30786986835301,54.90015963371843 86.05216327868402,58.95018502930179 81.20074181072414,65.25021835230291 80.79645668715239,71.55024415068328 82.00931205414236,81.90027019940317 82.00931205414236,96.30027265427634 81.60502693243325,104.40025675995275 82.41359717585146,108.9002425535582 86.86073352210224,115.65021404856816 91.71215499006212,118.80019778991118 98.98928719386458,120.15019024629146 106.67070451751351,119.70019279886037 112.73498135246336,113.85022249398753 115.1606920864433,108.45024414826185 113.94783671945333,97.2002715030685 113.94783671945333,92.2502759359777 114.75640696287155,89.55027639772743 113.54355159588158,81.45026948815212 113.54355159588158,68.85023401677608 112.33069622889161,64.3502140538767 109.50070037506521,60.75019531883299 105.86213427223265,58.050179654266685 101.41499792784452,56.70017130393535 92.11644011363387,55.800165546126664 88.47787401266396,58.050179654266685 84.83930791169405,60.300192803144455 80.39217156544328,67.05022649187595 80.39217156544328,83.70027265511453 81.60502693243325,88.20027611032128 80.39217156544328,101.70026343967766 80.79645668715239,107.55024721939117 82.00931205414236,113.40022450964898 83.22216741926968,114.30022044153884 86.86073352210224,119.70019279886037 90.9035847466439,122.85017412155867 93.32929548062384,122.85017412155867 94.54215084575117,124.20016554184258 94.94643596932292,133.20009950967506 93.7335806004703,132.75010317517444 92.92501035705209,134.1000920603983 86.05216327868402,134.55008827894926 81.60502693243325,135.90007670456544 79.98788644187152,137.2500647837296 78.37074595503509,141.7500225547701 78.77503107488155,142.65001364890486 72.7107542399317,144.0 70.28504350781441,143.55000458704308" stroke="#4DD2FF" stroke-linecap="round" stroke-linejoin="round" stroke-width="0.5"><title>2022-10-18 4.6km</title></polyline><polyline fill="none" points="88.44678157567978,156.0 102.31064367294312,181.71430324018002 111.5532183945179,243.42858631908894 97.68935629725456,264.0" stroke="#4DD2FF" stroke-linecap="round" stroke-linejoin="round" stroke-width="0.5"><title>2022-10-18 0.0km</title></polyline></svg>