<?xml version="1.0" encoding="utf-8" ?>
<svg baseProfile="full" height="200mm" version="1.1" viewBox="0,0,200,200" width="200mm" xmlns="http://www.w3.org/2000/svg" xmlns:ev="http://www.w3.org/2001/xml-events" xmlns:xlink="http://www.w3.org/1999/xlink"><defs /><rect fill="#1a1a1a" height="200" width="200" x="0" y="0" /><text alignment-baseline="middle" fill="#e1ed5e" style="dominant-baseline: central; font-size:9.0px; font-family:Arial;" text-anchor="middle" x="100.0" y="100.0">2022</text><line stroke="#e1ed5e" stroke-width="0.3" x1="100.0" x2="100.0" y1="15.0" y2="10.0" /><path d="M 100.0 14.0 a86.0,86.0 0 0,1 42.46469731375804,11.215312516191453" fill="none" id="id1" stroke="none" /><text fill="#e1ed5e" style="font-size:6.75px; font-family:Arial;" text-anchor="middle"><textPath startOffset="22.20632615414155" xlink:href="#id1">January</textPath></text><line stroke="#e1ed5e" stroke-width="0.3" x1="143.23703022742887" x2="145.7803849466894" y1="26.81831364943548" y2="22.513508569990506" /><path d="M 143.74570117128098 25.957352633546492 a86.0,86.0 0 0,1 28.547481713284135,27.462654790039103" fill="none" id="id2" stroke="none" /><text fill="#e1ed5e" style="font-size:6.75px; font-family:Arial;" text-anchor="middle"><textPath startOffset="19.985693538727396" xlink:href="#id2">February</textPath></text><line stroke="#e1ed5e" stroke-width="0.3" x1="172.23445277983987" x2="176.4835382374775" y1="55.19839476539836" y2="52.563006222186495" /><path d="M 173.08426987136738 54.67131705675599 a86.0,86.0 0 0,1 12.851231095245387,41.99856678651699" fill="none" id="id3" stroke="none" /><text fill="#e1ed5e" style="font-size:6.75px; font-family:Arial;" text-anchor="middle"><textPath startOffset="22.20632615414155" xlink:href="#id3">March</textPath></text><line stroke="#e1ed5e" stroke-width="0.3" x1="184.98032266829074" x2="189.97916517819016" y1="98.17113171792111" y2="98.06355123074" /><path d="M 185.9800911702706 98.14961562048488 a86.0,86.0 0 0,1 -9.607161424134198,41.387399972396054" fill="none" id="id4" stroke="none" /><text fill="#e1ed5e" style="font-size:6.75px; font-family:Arial;" text-anchor="middle"><textPath startOffset="21.466115282336823" xlink:href="#id4">April</textPath></text><line stroke="#e1ed5e" stroke-width="0.3" x1="174.80103733775053" x2="179.2010983576182" y1="140.37084112569926" y2="142.7455964860345" /><path d="M 175.68104954172406 140.8457921977663 a86.0,86.0 0 0,1 -30.038265399797805,32.042727171017184" fill="none" id="id5" stroke="none" /><text fill="#e1ed5e" style="font-size:6.75px; font-family:Arial;" text-anchor="middle"><textPath startOffset="22.206326154141568" xlink:href="#id5">May</textPath></text><line stroke="#e1ed5e" stroke-width="0.3" x1="143.8653032363475" x2="146.44561519142675" y1="172.8068346515853" y2="177.08958963109032" /><path d="M 144.38136562736335 173.6633856474863 a86.0,86.0 0 0,1 -40.68145358897372,12.25698825130547" fill="none" id="id6" stroke="none" /><text fill="#e1ed5e" style="font-size:6.75px; font-family:Arial;" text-anchor="middle"><textPath startOffset="21.466115282336833" xlink:href="#id6">June</textPath></text><line stroke="#e1ed5e" stroke-width="0.3" x1="102.19456741930631" x2="102.32365962044197" y1="184.97166512339345" y2="189.96999836594603" /><path d="M 102.22038585953345 185.97133177190398 a86.0,86.0 0 0,1 -42.740103519485714,-10.115201625700543" fill="none" id="id7" stroke="none" /><text fill="#e1ed5e" style="font-size:6.75px; font-family:Arial;" text-anchor="middle"><textPath startOffset="22.20632615414155" xlink:href="#id7">July</textPath></text><line stroke="#e1ed5e" stroke-width="0.3" x1="58.666819895761336" x2="56.23545636021788" y1="174.27360380694188" y2="178.64263932499728" /><path d="M 58.180547188652646 175.14741091055294 a86.0,86.0 0 0,1 -31.652253787137756,-30.449443065178592" fill="none" id="id8" stroke="none" /><text fill="#e1ed5e" style="font-size:6.75px; font-family:Arial;" text-anchor="middle"><textPath startOffset="22.20632615414155" xlink:href="#id8">August</textPath></text><line stroke="#e1ed5e" stroke-width="0.3" x1="26.63291911575756" x2="22.317208475507996" y1="142.92168965132927" y2="145.44649492493687" /><path d="M 25.769776987707644 143.4266507060508 a86.0,86.0 0 0,1 -11.730757126820373,-40.83630448921669" fill="none" id="id9" stroke="none" /><text fill="#e1ed5e" style="font-size:6.75px; font-family:Arial;" text-anchor="middle"><textPath startOffset="21.46611528233685" xlink:href="#id9">September</textPath></text><line stroke="#e1ed5e" stroke-width="0.3" x1="15.007084014347285" x2="10.007500721073583" y1="101.09737516637583" y2="101.16192664675087" /><path d="M 14.007167355692545 101.11028546245083 a86.0,86.0 0 0,1 10.666146001902534,-42.60595125391555" fill="none" id="id10" stroke="none" /><text fill="#e1ed5e" style="font-size:6.75px; font-family:Arial;" text-anchor="middle"><textPath startOffset="22.20632615414155" xlink:href="#id10">October</textPath></text><path d="M 79.81627453868168 94.20196356495316 l -43.16510248799999 -12.399734500332844 a65.9107947878713,65.9107947878713 0 0,0 0.3226305248035053,-1.0877497414121695 l 42.94526606608478 13.140913628491553" fill="#f8ff18" stroke="none" /><path d="M 80.2630227832202 92.82701384747504 l -43.783838422847175 -15.91230831661839 a67.58568517260545,67.58568517260545 0 0,0 0.40678668994242445,-1.0899860874276461 l 43.503447144403125 16.66361754107538" fill="#c9ff1d" stroke="none" /><path d="M 80.95270993114464 91.15688171328213 l -57.141870206566075 -26.529354860153617 a84.0,84.0 0 0,0 0.6201672246329939,-1.3062303374378712 l 56.676744788091334 27.50902761323202" fill="#4dd2ff" stroke="none" /><path d="M 81.26839172434947 90.50648371742162 l -39.30479750448054 -19.92037894457161 a65.06459581300561,65.06459581300561 0 0,0 0.5149105742557845,-0.9946433367181317 l 38.95607749706464 20.593995003550077" fill="#ffee16" stroke="none" /><line stroke="#e1ed5e" stroke-width="0.3" x1="26.266209847984243" x2="21.928928074336255" y1="57.711370442889674" y2="55.22380399835377" /><path d="M 25.398753493254645 57.213857153982495 a86.0,86.0 0 0,1 29.58750427330803,-30.492523968695096" fill="none" id="id11" stroke="none" /><text fill="#e1ed5e" style="font-size:6.75px; font-family:Arial;" text-anchor="middle"><textPath startOffset="21.46611528233685" xlink:href="#id11">November</textPath></text><path d="M 82.34701348167596 88.62581576622439 l -45.81458561883697 -29.519284846324748 a75.50104983634904,75.50104983634904 0 0,0 0.713317253406714,-1.0864311148222192 l 45.29967173007234 30.303534025124634" fill="#34ff5f" stroke="none" /><path d="M 82.95767976084542 87.72973835380427 l -40.92556443029489 -29.465904673251863 a71.42956833199531,71.42956833199531 0 0,0 0.7270080630742659,-0.9916381810052131 l 40.412293754706994 30.166005297928578" fill="#67ff28" stroke="none" /><path d="M 83.39014120810768 87.1503855733568 l -28.87672109611269 -22.339427242565282 a57.509108874204905,57.509108874204905 0 0,0 0.6124608346853798,-0.7777630636788798 l 28.48790618083334 22.83318270019721" fill="#ff0000" stroke="none" /><path d="M 83.6137871275137 86.86637796730984 l -42.47988823405806 -34.04781815045391 a75.4407460013586,75.4407460013586 0 0,0 0.8208725819139191,-1.0062927243598245 l 41.887517160067745 34.77399504442182" fill="#34ff5d" stroke="none" /><path d="M 84.31358615837235 86.03803664274999 l -42.93614519230545 -38.2160570241804 a78.48025381337615,78.48025381337615 0 0,0 0.906844413042029,-1.0013602506510446 l 42.27195713864738 38.94947006210101" fill="#3dffad" stroke="none" /><path d="M 84.80347519578584 85.50635884689758 l -36.058079064405504 -34.39028760606912 a70.82847526709071,70.82847526709071 0 0,0 0.8490503986736452,-0.8750210694702785 l 35.460764402028744 35.00587287108953" fill="#76ff27" stroke="none" /><path d="M 85.31137513191541 84.99185889309783 l -28.794666563098883 -29.4210263238576 a62.16709380596554,62.16709380596554 0 0,0 0.7712176015415281,-0.7419107216480371 l 28.283965717944927 29.91232013226795" fill="#ff980e" stroke="none" /><path d="M 85.83668400450813 84.49514656593479 l -40.20250204333908 -44.01044939356607 a80.60839560303836,80.60839560303836 0 0,0 1.0325129868921206,-0.9270003542691369 l 39.438978068850986 44.69594875660448" fill="#43ffe0" stroke="none" /><line stroke="#e1ed5e" stroke-width="0.3" x1="56.762969772571076" x2="54.21961505331055" y1="26.818313649435495" y2="22.513508569990535" /><path d="M 56.25429882871897 25.957352633546506 a86.0,86.0 0 0,1 42.265352541879196,-11.944610805530505" fill="none" id="id12" stroke="none" /><text fill="#e1ed5e" style="font-size:6.75px; font-family:Arial;" text-anchor="middle"><textPath startOffset="22.20632615414155" xlink:href="#id12">December</textPath></text></svg>