<?xml version="1.0" encoding="utf-8" ?>
<svg baseProfile="full" height="200mm" version="1.1" viewBox="0,0,200,200" width="200mm" xmlns="http://www.w3.org/2000/svg" xmlns:ev="http://www.w3.org/2001/xml-events" xmlns:xlink="http://www.w3.org/1999/xlink"><defs /><rect fill="#1a1a1a" height="200" width="200" x="0" y="0" /><text alignment-baseline="middle" fill="#e1ed5e" style="dominant-baseline: central; font-size:9.0px; font-family:Arial;" text-anchor="middle" x="100.0" y="100.0">2022</text><line stroke="#e1ed5e" stroke-width="0.3" x1="100.0" x2="100.0" y1="15.0" y2="10.0" /><path d="M 100.0 14.0 a86.0,86.0 0 0,1 42.46469731375804,11.215312516191453" fill="none" id="id1" stroke="none" /><text fill="#e1ed5e" style="font-size:6.75px; font-family:Arial;" text-anchor="middle"><textPath startOffset="22.20632615414155" xlink:href="#id1">January</textPath></text><line stroke="#e1ed5e" stroke-width="0.3" x1="143.23703022742887" x2="145.7803849466894" y1="26.81831364943548" y2="22.513508569990506" /><path d="M 143.74570117128098 25.957352633546492 a86.0,86.0 0 0,1 28.547481713284135,27.462654790039103" fill="none" id="id2" stroke="none" /><text fill="#e1ed5e" style="font-size:6.75px; font-family:Arial;" text-anchor="middle"><textPath startOffset="19.985693538727396" xlink:href="#id2">February</textPath></text><line stroke="#e1ed5e" stroke-width="0.3" x1="172.23445277983987" x2="176.4835382374775" y1="55.19839476539836" y2="52.563006222186495" /><path d="M 173.08426987136738 54.67131705675599 a86.0,86.0 0 0,1 12.851231095245387,41.99856678651699" fill="none" id="id3" stroke="none" /><text fill="#e1ed5e" style="font-size:6.75px; font-family:Arial;" text-anchor="middle"><textPath startOffset="22.20632615414155" xlink:href="#id3">March</textPath></text><line stroke="#e1ed5e" stroke-width="0.3" x1="184.98032266829074" x2="189.97916517819016" y1="98.17113171792111" y2="98.06355123074" /><path d="M 185.9800911702706 98.14961562048488 a86.0,86.0 0 0,1 -9.607161424134198,41.387399972396054" fill="none" id="id4" stroke="none" /><text fill="#e1ed5e" style="font-size:6.75px; font-family:Arial;" text-anchor="middle"><textPath startOffset="21.466115282336823" xlink:href="#id4">April</textPath></text><line stroke="#e1ed5e" stroke-width="0.3" x1="174.80103733775053" x2="179.2010983576182" y1="140.37084112569926" y2="142.7455964860345" /><path d="M 175.68104954172406 140.8457921977663 a86.0,86.0 0 0,1 -30.038265399797805,32.042727171017184" fill="none" id="id5" stroke="none" /><text fill="#e1ed5e" style="font-size:6.75px; font-family:Arial;" text-anchor="middle"><textPath startOffset="22.206326154141568" xlink:href="#id5">May</textPath></text><line stroke="#e1ed5e" stroke-width="0.3" x1="143.8653032363475" x2="146.44561519142675" y1="172.8068346515853" y2="177.08958963109032" /><path d="M 144.38136562736335 173.6633856474863 a86.0,86.0 0 0,1 -40.68145358897372,12.25698825130547" fill="none" id="id6" stroke="none" /><text fill="#e1ed5e" style="font-size:6.75px; font-family:Arial;" text-anchor="middle"><textPath startOffset="21.466115282336833" xlink:href="#id6">June</textPath></text><line stroke="#e1ed5e" stroke-width="0.3" x1="102.19456741930631" x2="102.32365962044197" y1="184.97166512339345" y2="189.96999836594603" /><path d="M 102.22038585953345 185.97133177190398 a86.0,86.0 0 0,1 -42.740103519485714,-10.115201625700543" fill="none" id="id7" stroke="none" /><text fill="#e1ed5e" style="font-size:6.75px; font-family:Arial;" text-anchor="middle"><textPath startOffset="22.20632615414155" xlink:href="#id7">July</textPath></text><line stroke="#e1ed5e" stroke-width="0.3" x1="58.666819895761336" x2="56.23545636021788" y1="174.27360380694188" y2="178.64263932499728" /><path d="M 58.180547188652646 175.14741091055294 a86.0,86.0 0 0,1 -31.652253787137756,-30.449443065178592" fill="none" id="id8" stroke="none" /><text fill="#e1ed5e" style="font-size:6.75px; font-family:Arial;" text-anchor="middle"><textPath startOffset="22.20632615414155" xlink:href="#id8">August</textPath></text><line stroke="#e1ed5e" stroke-width="0.3" x1="26.63291911575756" x2="22.317208475507996" y1="142.92168965132927" y2="145.44649492493687" /><path d="M 25.769776987707644 143.4266507060508 a86.0,86.0 0 0,1 -11.730757126820373,-40.83630448921669" fill="none" id="id9" stroke="none" /><text fill="#e1ed5e" style="font-size:6.75px; font-family:Arial;" text-anchor="middle"><textPath startOffset="21.46611528233685" xlink:href="#id9">September</textPath></text><line stroke="#e1ed5e" stroke-width="0.3" x1="15.007084014347285" x2="10.007500721073583" y1="101.09737516637583" y2="101.16192664675087" /><path d="M 14.007167355692545 101.11028546245083 a86.0,86.0 0 0,1 10.666146001902534,-42.60595125391555" fill="none" id="id10" stroke="none" /><text fill="#e1ed5e" style="font-size:6.75px; font-family:Arial;" text-anchor="middle"><textPath startOffset="22.20632615414155" xlink:href="#id10">October</textPath></text><path d="M 79.81627453868168 94.20196356495316 l -31.824276849690797 -9.141935518650932 a54.11132105538734,54.11132105538734 0 0,0 0.2648726049518545,-0.8930187486724046 l 31.662198347627236 9.688383654069876" fill="#ff940d" stroke="none" /><path d="M 80.2630227832202 92.82701384747504 l -32.28045145724336 -11.731646075124713 a55.346165228674856,55.346165228674856 0 0,0 0.3331191109016795,-0.8925936008144448 l 32.07372775784005 12.285562812968498" fill="#ffb010" stroke="none" /><path d="M 80.95270993114464 91.15688171328213 l -42.12890952056478 -19.559261650031534 a67.44792496642157,67.44792496642157 0 0,0 0.4979641956390486,-1.0488395927187268 l 41.785987131083985 20.28154365839079" fill="#5dff2a" stroke="none" /><path d="M 81.26839172434947 90.50648371742162 l -28.978195004896918 -14.686670897145179 a53.48744507933617,53.48744507933617 0 0,0 0.4232908960262928,-0.8176632803366239 l 28.72109467571051 15.183306899742139" fill="#ff860c" stroke="none" /><line stroke="#e1ed5e" stroke-width="0.3" x1="26.266209847984243" x2="21.928928074336255" y1="57.711370442889674" y2="55.22380399835377" /><path d="M 25.398753493254645 57.213857153982495 a86.0,86.0 0 0,1 29.58750427330803,-30.492523968695096" fill="none" id="id11" stroke="none" /><text fill="#e1ed5e" style="font-size:6.75px; font-family:Arial;" text-anchor="middle"><textPath startOffset="21.46611528233685" xlink:href="#id11">November</textPath></text><path d="M 82.34701348167596 88.62581576622439 l -33.77765770145137 -21.76364329530979 a61.181915450634,61.181915450634 0 0,0 0.5780332324120491,-0.8803842695441557 l 33.3980278336814 22.341845628831614" fill="#d3ff1c" stroke="none" /><path d="M 82.95767976084542 87.72973835380427 l -30.17313564867918 -21.724287767157666 a58.180139777357894,58.180139777357894 0 0,0 0.592155765695434,-0.8076997989305448 l 29.794717270470116 22.240450009759712" fill="#ffee16" stroke="none" /><path d="M 83.39014120810768 87.1503855733568 l -21.289901186484517 -16.470159370722314 a47.91702142190452,47.91702142190452 0 0,0 0.5103069671952487,-0.6480380258540778 l 21.0032401386953 16.83418979052944" fill="#ff0000" stroke="none" /><path d="M 83.6137871275137 86.86637796730984 l -31.31908986154767 -25.10238893210555 a61.137455323605074,61.137455323605074 0 0,0 0.665238130097902,-0.8155032888581147 l 30.882353239373376 25.637776390571748" fill="#d4ff1c" stroke="none" /><path d="M 84.31358615837235 86.03803664274999 l -31.655473813326754 -28.17550078050189 a63.37838914562797,63.37838914562797 0 0,0 0.7323413892236978,-0.8086696532817352 l 31.165788783487013 28.71622322105318" fill="#a8ff21" stroke="none" /><path d="M 84.80347519578584 85.50635884689758 l -26.584491282806404 -25.354880925402483 a57.73697270471464,57.73697270471464 0 0,0 0.6921171112082998,-0.7132875219118189 l 26.144109907894986 25.808732642864424" fill="#ffe415" stroke="none" /><path d="M 85.31137513191541 84.99185889309783 l -21.229404951681662 -21.69120036707383 a51.35120768547818,51.35120768547818 0 0,0 0.6370404791812074,-0.6128324362458049 l 20.852881228888027 22.053415890081947" fill="#ff5407" stroke="none" /><path d="M 85.83668400450813 84.49514656593479 l -29.64004441859402 -32.44752462175953 a64.94740137045554,64.94740137045554 0 0,0 0.8319113025165186,-0.7468981813725959 l 29.077122128481527 32.9529218119014" fill="#8aff24" stroke="none" /><path d="M 86.37877921826538 84.01681056812374 l -21.625823719784048 -25.375819294932093 a54.34079267876249,54.34079267876249 0 0,0 0.7171495774565038,-0.6005921470020746 l 21.185816605368437 25.74431259932798" fill="#ff990e" stroke="none" /><path d="M 86.93701828274178 83.55741782278169 l -23.565378735437257 -29.66211580031414 a58.883613722767315,58.883613722767315 0 0,0 0.7990434735979229,-0.6236661053607385 l 23.05130270667991 30.0633602948981" fill="#fffc17" stroke="none" /><path d="M 87.51073957382395 83.11751280151077 l -26.494080820065154 -35.813648288014676 a65.5483301841692,65.5483301841692 0 0,0 0.9128531508356698,-0.6632266359058085 l 25.8736823528757 36.264394158737154" fill="#7fff26" stroke="none" /><path d="M 88.39885842347998 82.49532879139004 l -19.63322933044594 -29.6240867267982 a56.5394176702256,56.5394176702256 0 0,0 0.815871804620614,-0.5306657166759459 l 19.120390500041037 29.95765136763368" fill="#ffca12" stroke="none" /><path d="M 89.00827224532344 82.1063720568725 l -32.97518326402967 -53.68088382938249 a84.0,84.0 0 0,0 1.2385517351294033,-0.746213562165523 l 32.046269462682616 54.240544001006626" fill="#4dd2ff" stroke="none" /><line stroke="#e1ed5e" stroke-width="0.3" x1="56.762969772571076" x2="54.21961505331055" y1="26.818313649435495" y2="22.513508569990535" /><path d="M 56.25429882871897 25.957352633546506 a86.0,86.0 0 0,1 42.265352541879196,-11.944610805530505" fill="none" id="id12" stroke="none" /><text fill="#e1ed5e" style="font-size:6.75px; font-family:Arial;" text-anchor="middle"><textPath startOffset="22.20632615414155" xlink:href="#id12">December</textPath></text></svg>